<svg width="897" height="508" viewBox="0 0 897 508" fill="none" xmlns="http://www.w3.org/2000/svg">
<path d="M356.838 0.902222C354.991 1.87256 353.929 2.05739 347.835 2.28841C343.449 2.51945 339.294 2.98151 336.524 3.6284C333.846 4.22909 330.245 4.64495 327.291 4.69115C318.15 4.87598 313.256 5.84632 304.022 9.35801C295.528 12.6387 293.635 13.1469 287.402 13.9325C282 14.5793 279.277 15.5035 279.277 16.7048C279.277 17.0745 279.692 17.5828 280.2 17.86C280.754 18.1372 281.123 18.8303 281.123 19.4772C281.123 21.4179 282.554 21.7876 289.48 21.6951C295.158 21.5565 295.897 21.6489 297.744 22.6193C301.391 24.4675 302.73 27.6558 301.668 31.7682C301.298 33.062 301.16 34.4019 301.298 34.7716C301.622 35.6495 303.237 36.0192 305.823 35.7881C307.531 35.6957 307.9 35.7881 307.9 36.3888C307.9 37.0357 307.3 37.1743 304.484 37.3592C302.591 37.4516 300.929 37.6364 300.744 37.775C300.606 37.9598 300.652 39.5771 300.883 41.3791L301.252 44.6598L299.636 46.4156C297.605 48.5411 296.866 50.6666 296.497 55.3335L296.22 58.8452L297.697 59.8617C298.944 60.7859 299.129 61.1555 299.129 63.0962C299.129 66.0072 300.375 67.8092 306.192 73.2154C310.486 77.2354 310.855 77.4664 311.778 76.8657C312.286 76.5423 313.764 74.2319 314.964 71.783C317.134 67.3472 317.226 67.301 321.889 63.8817C324.659 61.8486 327.337 59.4921 328.353 58.1059C330.245 55.5183 330.476 55.4259 335.924 55.1487C338.925 54.9638 340.402 54.5942 342.618 53.5314C345.619 52.1452 349.036 49.0956 350.19 46.8315C350.975 45.3529 350.698 45.3991 353.144 46.277C359.931 48.6797 369.072 45.3067 374.381 38.3757C375.997 36.3426 376.274 35.6495 376.044 34.633C375.859 33.8937 375.674 33.062 375.628 32.6923C375.582 32.3226 376.644 31.2599 377.983 30.3358C379.321 29.4116 382.276 26.9165 384.584 24.791L388.786 20.9558L387.447 19.8931L386.154 18.8766L387.447 18.2759C388.786 17.6752 389.017 16.9821 388.139 16.058C386.847 14.7642 391.971 11.9918 399.404 10.0049C405.637 8.29527 407.022 7.1401 404.667 5.61529C403.652 4.92219 402.774 4.92219 396.357 5.43046C389.201 6.03114 389.155 6.03114 387.862 5.0146C384.861 2.61186 384.169 2.42704 376.228 2.10359C371.796 1.91876 367.549 1.4567 366.118 1.04084C361.316 -0.299149 359.146 -0.345352 356.838 0.902222Z" fill="#EEEEEE"/>
<path d="M297.051 2.19595C295.527 2.42697 288.279 2.79663 280.892 3.02765C266.626 3.53595 263.487 3.95178 257.162 6.26212C254.115 7.41727 252.776 7.60211 246.728 7.83313C238.557 8.15659 234.217 8.84967 233.801 9.91245C233.617 10.4207 234.171 11.2062 235.463 12.4076C237.079 13.8862 237.31 14.3483 237.079 15.411C236.895 16.1503 236.156 17.3055 235.371 17.9986L233.986 19.2924L232.462 18.322C230.662 17.213 227.246 17.0744 225.907 18.0448C225.03 18.6917 225.03 18.7379 225.907 20.4013C226.83 22.111 229.185 23.8668 230.57 23.8668C231.031 23.8668 232.139 24.4213 233.016 25.0682C234.078 25.8999 235.463 26.4081 237.218 26.6392C238.649 26.824 239.711 27.0089 239.572 27.0551C239.434 27.1013 236.941 27.3323 233.986 27.5171C227.846 27.933 224.845 29.0419 223.321 31.4447C222.536 32.6922 222.49 33.3391 222.767 36.1115C223.552 43.4121 222.952 46.5542 220.736 46.8776C219.259 47.1087 218.243 46.0459 216.535 42.6266C215.011 39.5308 214.734 37.1743 215.658 35.2336C215.935 34.5405 218.428 32.5536 221.428 30.4743C225.214 27.933 226.553 26.824 226.184 26.4543C225.907 26.1771 223.922 25.8537 221.844 25.8075C216.95 25.5764 215.057 26.3619 213.257 29.3654C211.225 32.6922 209.61 34.4019 206.84 36.3426C205.408 37.3129 203.469 38.9301 202.546 39.9467C201.623 40.9632 200.468 42.0259 200.007 42.3032C199.499 42.5342 195.713 43.4121 191.512 44.1515C185.095 45.399 183.017 45.5838 177.939 45.4914C173.968 45.399 170.09 45.6301 166.397 46.1845C161.642 46.8776 160.534 46.9238 158.548 46.4156C156.425 45.8611 156.24 45.7225 156.379 44.5673C156.563 42.9501 155.732 42.5342 151.623 42.2108C149.592 42.0259 146.176 41.148 142.39 39.808C135.465 37.4053 132.787 37.1743 127.478 38.6529C123.6 39.7156 120.599 39.808 119.352 38.8839C117.136 37.1743 113.674 38.2832 109.472 41.9335C108.272 42.9963 107.718 43.1811 106.472 42.9963C103.794 42.5342 101.809 41.7949 99.3157 40.4087L96.8688 39.0225L91.698 39.5308C83.9881 40.2701 81.5412 39.7618 76.1858 36.1577C74.1083 34.7715 73.3696 34.4943 71.1997 34.4943C67.5525 34.4943 53.4253 37.6363 35.3738 42.488C33.1578 43.0425 32.8346 43.7818 34.1273 45.4914C35.42 47.2473 35.0506 49.2804 33.1578 50.8514C31.7266 52.0528 30.8494 52.2838 25.6325 52.7458C22.3084 53.0231 20.5541 53.7162 19.3076 55.1024C17.7379 56.9507 17.8764 57.4589 20.7387 59.5382C22.2623 60.6472 23.5088 61.6175 23.5088 61.7561C23.5088 61.8947 20.4617 63.4658 16.7683 65.2216C13.0288 66.9774 9.70473 68.6871 9.38156 69.0567C8.27354 70.1195 8.59671 71.7829 10.1202 72.8457C11.7823 74.0009 11.9208 75.6181 10.6281 77.7436C10.1664 78.5291 7.58103 80.7932 4.85715 82.8263C-0.498267 86.8463 -1.23695 88.0938 1.71777 88.0938C5.27266 88.0938 10.8589 86.1994 19.3537 82.087C31.9574 76.0339 42.5759 72.8457 50.2859 72.8457C54.1178 72.8457 55.5951 73.4926 57.9497 76.0801C58.9654 77.1891 60.3965 78.1594 61.7816 78.6215C64.4593 79.4994 65.5673 80.6084 67.137 84.0276C69.63 89.4338 70.2302 96.9193 69.1684 108.425C68.1527 119.791 66.4906 124.042 60.3504 131.158C53.7946 138.736 52.1326 143.773 51.9941 156.71C51.9017 165.028 52.0402 165.536 55.826 170.11C59.6117 174.592 61.1352 178.982 63.6744 192.243C64.8286 198.389 66.7676 203.564 69.2607 207.122C71.7999 210.726 72.1692 210.957 73.5543 209.94C74.2929 209.386 74.2468 208.97 72.2616 203.148C68.9375 193.075 66.9985 180.045 68.799 179.675C69.353 179.583 69.7685 180.599 70.6919 184.296C72.4001 191.134 73.4158 193.491 77.5247 200.329C81.6336 207.26 82.8339 210.356 83.5264 216.271C84.1728 221.631 85.6501 224.588 89.2973 228.053C93.1292 231.611 98.2076 234.014 107.303 236.648C117.182 239.466 119.445 240.298 124.846 243.117C127.385 244.457 130.663 245.889 132.187 246.305C135.649 247.321 138.327 249.77 141.697 255.13C146.129 262.154 146.683 262.754 149.269 263.91C151.346 264.834 151.762 265.25 152.224 266.774C152.962 269.223 154.301 270.378 156.471 270.378C158.456 270.378 159.379 269.732 160.903 267.283C163.119 263.771 164.781 265.342 166.489 272.596C167.089 275.184 168.013 277.91 168.521 278.742C169.998 281.145 169.675 282.438 166.305 287.475C162.611 293.066 159.056 299.951 158.179 303.416C157.671 305.403 157.625 306.604 157.948 308.684C158.318 310.855 158.271 311.918 157.671 313.997C156.379 318.526 156.471 319.034 158.964 321.852C161.088 324.255 162.103 326.658 162.934 331.463C164.643 341.259 170.46 349.576 178.862 354.197C184.541 357.339 186.988 359.326 190.219 363.623C197.745 373.696 198.576 376.931 196.637 389.822C195.205 399.341 195.344 403.222 197.329 410.153C199.545 417.777 199.961 422.074 199.36 430.946C198.806 438.755 199.083 444.022 200.191 447.719C200.561 449.013 202.223 452.755 203.839 455.99C207.855 464.03 209.148 468.558 209.286 475.166C209.425 479.925 209.563 480.618 210.856 483.252C212.518 486.625 219.028 494.942 223.183 499.054C226.553 502.427 231.216 505.015 235.602 506.032C239.018 506.817 247.882 507.787 248.298 507.372C248.667 507.048 246.497 505.338 241.142 501.688C235.463 497.807 232.878 494.988 231.908 491.615C231.077 488.704 231.262 487.595 233.386 482.328C234.263 480.248 234.956 477.892 234.956 477.106C234.956 475.027 233.801 473.179 232.093 472.578C228.261 471.146 228.077 470.73 229.323 466.479C230.708 461.627 230.985 458.023 230.154 454.973C229.785 453.587 229.508 452.432 229.554 452.386C230.57 452.109 232.647 450.214 234.54 447.95C236.156 446.009 237.864 444.531 239.711 443.56C243.219 441.666 244.05 440.88 245.389 438.247C246.267 436.537 246.497 435.336 246.497 432.609C246.497 428.358 246.959 427.712 251.53 425.863C253.376 425.078 255.916 423.738 257.116 422.86C261.917 419.348 266.026 411.909 268.288 402.575C269.673 396.892 270.828 394.35 272.397 393.519C272.859 393.242 274.059 391.624 275.075 389.915C277.106 386.449 278.491 385.294 283.893 382.799C292.295 378.917 293.727 375.036 290.818 363.947C287.956 352.949 289.11 348.883 298.897 335.761C305.776 326.519 306.515 324.579 304.622 320.836C301.667 315.106 294.327 309.746 286.663 307.806C284.955 307.39 282.092 306.096 279.969 304.802C276.506 302.723 272.674 301.106 271.197 301.106C269.72 301.106 266.026 299.535 264.872 298.426C264.179 297.779 263.256 296.3 262.794 295.145C262.379 293.99 261.132 291.911 260.024 290.524C258.778 288.953 257.762 287.105 257.301 285.442C255.408 278.557 254.484 277.725 247.652 276.847C241.834 276.062 240.68 275.415 236.571 270.332C233.063 266.035 231.216 264.695 227.338 263.817C224.706 263.216 224.152 262.893 223.275 261.553C221.798 259.243 220.043 258.827 216.027 259.797C212.841 260.583 212.564 260.583 210.394 259.797C208.594 259.196 207.394 259.058 205.316 259.289L202.5 259.612L200.745 257.672C199.499 256.332 198.714 255.823 198.206 256.008C195.252 257.117 187.911 257.441 188.973 256.424C189.434 255.962 188.28 254.899 187.311 254.899C186.203 254.899 179.185 257.949 178.077 258.919C177.662 259.289 177.2 260.305 177.062 261.137C176.646 263.309 175.261 264.141 172.122 264.141C169.767 264.141 169.213 263.956 167.043 262.292C165.658 261.276 164.089 260.444 163.535 260.444C162.981 260.444 161.318 260.952 159.887 261.599C158.456 262.246 156.979 262.754 156.563 262.754C155.363 262.754 151.993 259.612 150.977 257.533C149.73 254.945 149.777 253.605 151.208 250.186C152.824 246.305 153.008 240.806 151.577 238.866C149.453 236.047 144.144 234.384 140.682 235.539C138.973 236.093 138.743 236.047 138.189 235.262C137.173 233.922 137.404 233.136 139.389 230.456C141.005 228.331 141.236 227.684 141.236 225.604C141.236 223.895 141.513 222.786 142.344 221.631C144.514 218.396 144.283 216.548 141.513 215.393C139.758 214.653 137.819 214.977 134.818 216.502C132.095 217.934 130.756 219.366 130.386 221.307C129.925 223.571 129.047 224.264 124.8 225.327C120.091 226.482 118.567 226.482 116.952 225.235C115.059 223.756 114.597 223.109 113.074 220.06C110.442 214.746 110.765 210.495 114.274 203.518C116.074 199.914 116.305 199.174 116.213 196.633L116.121 193.768L118.521 191.55C121.384 188.916 126.093 186.514 128.909 186.19C130.386 186.005 131.448 186.19 132.833 186.93C135.372 188.223 136.619 188.177 141.467 186.514C146.129 184.943 147.93 184.804 150.238 185.913C151.762 186.652 151.947 186.652 153.47 185.913C157.856 183.834 160.626 186.375 160.626 192.567C160.626 195.062 163.858 203.795 164.873 203.98C165.797 204.165 167.92 202.085 168.29 200.607C168.474 199.914 168.336 197.927 168.013 196.217C167.551 193.722 167.551 192.613 168.013 190.718C168.382 189.194 168.474 187.114 168.244 184.712C168.013 181.847 168.059 180.784 168.659 179.675C169.075 178.89 169.398 177.781 169.398 177.18C169.398 176.579 169.813 175.47 170.275 174.639C171.06 173.437 171.798 172.975 175.03 172.005C178.262 171.034 179.185 170.526 180.94 168.724C182.094 167.523 183.756 166.183 184.679 165.721C186.895 164.566 187.311 163.919 187.819 161.285C188.142 159.483 188.603 158.744 190.127 157.404C191.189 156.526 192.02 155.555 192.02 155.324C192.02 152.321 194.928 148.439 200.33 144.466C204.254 141.555 206.609 140.538 210.902 139.891C214.919 139.244 216.719 138.32 217.412 136.518C217.643 135.825 218.104 134.624 218.381 133.884C219.212 131.667 229.277 125.521 232.047 125.521C233.478 125.521 233.801 126.353 232.832 127.416C232.047 128.247 232.093 128.293 233.432 128.293C235.14 128.293 238.972 127 239.434 126.307C239.618 125.983 239.895 124.597 240.08 123.211C240.219 121.825 240.588 119.56 240.911 118.22C241.28 116.418 241.28 115.171 240.911 113.738C240.542 112.26 240.542 111.474 240.957 110.735C241.881 108.979 247.282 107.038 255.362 105.606C257.855 105.144 258.593 105.144 259.193 105.652C260.209 106.484 260.117 106.854 257.67 111.752C254.992 117.112 255.085 117.666 258.824 119.329C262.748 121.085 265.703 121.27 267.734 119.884C269.812 118.451 270.458 116.557 270.458 111.521C270.504 108.24 270.735 106.946 271.705 104.59C273.367 100.662 273.09 98.9986 269.858 93.5C266.026 86.9387 262.794 79.407 261.271 73.4926C260.44 70.1195 258.732 70.3505 256.7 74.0471C254.346 78.3905 251.391 77.8822 247.421 72.4298C243.496 67.0699 240.219 65.7299 231.031 66.0071C226.138 66.1458 225.122 66.2844 224.014 67.1161C222.167 68.4561 221.151 70.8588 220.367 75.5719C219.536 80.747 218.797 82.8263 216.673 86.0607C214.688 89.0641 211.318 91.929 207.855 93.5C206.563 94.1007 205.362 94.8862 205.224 95.2558C205.085 95.6255 205.131 96.9655 205.27 98.2592C205.593 100.893 204.67 102.418 202.777 102.418C201.438 102.418 198.299 99.6454 196.775 97.0117C195.621 95.0248 195.575 94.1931 196.406 90.82C196.683 89.6649 196.498 89.48 192.62 87.4469C190.404 86.2456 186.895 84.0739 184.864 82.6414C179.185 78.5753 177.985 76.0339 180.155 72.7995C181.817 70.3043 184.171 69.3802 195.021 66.9312C200.607 65.6375 205.639 64.4361 206.193 64.2051C207.486 63.743 210.625 61.063 215.104 56.581C217.043 54.6403 219.351 52.7458 220.136 52.2838C220.967 51.8679 223.506 51.2672 225.768 50.8976C230.616 50.2045 231.816 49.419 235.648 44.6597C237.079 42.9501 238.51 41.3791 238.88 41.2404C239.665 40.9632 245.482 43.8742 247.559 45.6301L248.99 46.8314L247.698 49.0031C244.512 54.4093 241.419 56.4424 237.079 55.9341C235.279 55.7031 234.309 55.7955 233.801 56.2113C232.693 57.1355 232.97 58.7989 234.402 59.9079C235.51 60.832 235.971 60.8782 238.418 60.5547C243.773 59.8617 244.327 60.0003 246.913 62.3106C250.422 65.4988 256.885 67.763 258.778 66.4692C259.655 65.9147 260.394 64.0664 260.117 63.1885C259.932 62.4954 260.163 62.2644 261.409 62.0334C264.687 61.4327 265.842 59.3534 264.226 56.9044C263.348 55.5645 263.533 53.6238 264.503 53.7624C264.872 53.8086 266.119 54.1783 267.273 54.5941C270.135 55.6569 276.044 55.3796 277.799 54.0396C280.754 51.8679 279.184 48.7259 273.736 45.8611C270.366 44.059 269.35 42.9963 270.089 41.8411C270.781 40.7322 270.551 38.0522 269.581 36.4812C268.704 35.0026 267.642 34.5405 263.487 33.8474C262.102 33.6164 261.271 32.9233 259.332 30.7054C257.947 29.1343 256.1 27.5171 255.038 27.0551C253.376 26.3157 253.33 26.2233 254.392 26.2233C255.131 26.1771 256.562 25.4378 257.762 24.3751C260.255 22.342 275.86 14.2096 279.969 12.8235C281.492 12.3152 285.232 11.5759 288.279 11.16C291.326 10.7441 295.389 10.0049 297.282 9.54279C301.714 8.43384 309.377 5.89246 309.931 5.38419C310.624 4.6911 306.746 2.61182 303.93 2.14975C300.929 1.64148 300.975 1.64148 297.051 2.19595Z" fill="#EEEEEE"/>
<path d="M608.587 7.32511C607.249 7.972 607.249 9.31198 608.587 10.1899C611.08 11.8533 613.804 12.454 618.883 12.5464C623.361 12.6389 624.377 12.8237 626.593 13.8864C630.009 15.5037 636.611 16.0581 638.781 14.903C640.766 13.8864 640.951 13.4244 639.843 12.3154C638.966 11.4375 638.412 11.3451 634.303 11.4837L629.732 11.5761L627.239 9.86646C625.854 8.89613 624.1 7.92579 623.361 7.74096C620.96 7.04787 609.742 6.72442 608.587 7.32511Z" fill="#EEEEEE"/>
<path d="M468.931 8.15671C460.806 8.94222 454.158 10.1436 452.68 11.1601C451.018 12.2691 450.603 14.1173 451.665 15.7808C452.588 17.167 453.788 17.8139 459.051 19.6621C462.837 21.0021 463.253 21.0483 464.222 20.4014C464.822 19.9856 465.33 19.3849 465.33 19.0614C465.33 18.738 465.746 17.9063 466.3 17.2132C467.085 16.2428 467.639 16.0118 469.347 16.0118C470.501 16.0118 472.44 16.3815 473.687 16.7973C476.364 17.7677 476.503 17.6752 478.026 13.8863C478.626 12.4077 479.365 11.1139 479.596 11.0215C480.381 10.7443 479.319 9.17325 477.795 8.38774C476.364 7.64844 474.702 7.60223 468.931 8.15671Z" fill="#EEEEEE"/>
<path d="M215.381 13.2396C213.488 13.8403 212.38 14.9955 211.826 17.121C211.503 18.3223 210.764 19.4775 209.748 20.3092C207.948 21.834 207.763 22.712 209.148 23.405C210.487 24.1444 210.072 25.7154 208.271 26.7781C207.486 27.2402 205.178 27.8409 203.193 28.1181C199.038 28.6726 197.56 29.4119 197.56 31.0291C197.56 32.5539 198.807 33.016 203.839 33.3857C208.179 33.7553 209.241 33.2932 209.795 30.7519C210.118 29.4119 211.965 27.5636 213.026 27.5636C213.35 27.5636 214.458 26.4547 215.519 25.0685C216.535 23.6823 218.428 21.6492 219.721 20.5402C223.368 17.4906 224.199 15.4113 222.491 13.7017C221.475 12.6851 217.966 12.5003 215.381 13.2396Z" fill="#EEEEEE"/>
<path d="M196.73 13.7472C195.899 13.9782 193.821 14.9485 192.113 15.9189L189.02 17.6285L183.341 17.4899C176.97 17.3513 173.554 17.9982 171.384 19.8926C170.23 20.863 170.184 21.094 170.691 22.203C171.338 23.6816 172.584 24.1898 176.693 24.7443C178.401 24.9753 181.495 25.576 183.526 26.1305C187.127 27.1008 187.358 27.1008 189.297 26.3615C190.405 25.9457 193.129 25.4374 195.345 25.2526C201.023 24.7905 202.916 23.4043 201.808 20.5395C201.347 19.2457 201.439 19.0609 202.916 17.6747C204.209 16.4733 204.532 15.8727 204.394 14.8099C204.255 13.4699 204.209 13.4699 201.254 13.3775C199.592 13.3313 197.561 13.5161 196.73 13.7472Z" fill="#EEEEEE"/>
<path d="M641.598 16.4279C641.183 16.5665 640.075 17.583 639.197 18.6458C637.212 20.9099 636.751 21.0485 627.148 21.3257C621.1 21.5106 619.992 21.6954 618.145 22.6195C616.622 23.4051 615.929 24.0519 615.606 25.1609C615.144 26.7319 614.96 26.8243 611.128 27.3326C608.542 27.656 607.711 28.4416 608.45 29.8278C608.912 30.7519 608.819 30.7981 606.742 30.7981C603.279 30.7981 601.525 31.5374 599.447 33.8015C598.385 34.9567 597.277 35.8808 597 35.8808C596.677 35.8808 595.939 35.0491 595.292 33.9863C593.815 31.676 592.153 31.5836 591.922 33.8015C591.691 36.2505 591.46 36.6201 590.537 35.696C590.121 35.2801 589.244 33.8477 588.598 32.5077L587.444 30.105H583.704C580.657 30.105 579.734 30.2898 578.949 30.9829C576.502 33.2008 577.656 37.5443 581.58 41.0097L583.75 42.9042L581.303 42.5807C579.965 42.3959 577.795 41.9801 576.456 41.6104C575.163 41.2408 572.208 40.9635 569.9 40.9635C567.315 40.9173 565.053 40.6401 563.898 40.2242C562.883 39.8083 561.544 39.3925 560.897 39.3001C559.743 39.0691 559.743 39.0691 561.128 40.2242C561.913 40.8711 563.206 41.6566 564.037 41.9339C565.283 42.3497 565.468 42.5807 565.006 43.089C564.406 43.8283 562.837 43.9207 561.913 43.32C561.498 43.089 559.282 43.4587 556.188 44.198C551.618 45.3994 551.11 45.4456 550.879 44.7524C549.863 42.0725 545.201 43.1814 539.66 47.3862C538.275 48.4028 536.937 49.2807 536.66 49.2807C535.552 49.2807 534.444 47.9407 534.167 46.231C533.936 44.7986 533.659 44.3828 532.828 44.2904C531.073 44.0132 529.504 45.3994 529.504 47.109C529.504 47.9407 529.781 49.0497 530.15 49.5579C530.796 50.4359 530.658 50.5745 527.426 52.2379C525.579 53.2083 523.363 54.5945 522.532 55.3338C521.286 56.4427 520.593 56.6738 518.747 56.6738C517.223 56.6738 515.93 56.9972 514.915 57.6441L513.345 58.6144L511.36 57.6441C509.236 56.6275 504.204 51.8221 504.712 51.3138C504.896 51.129 506.281 51.591 507.851 52.2841C510.713 53.5317 510.76 53.5317 513.114 52.7924C514.407 52.3766 516.3 52.0531 517.223 52.0531C522.44 52.0531 524.194 47.9869 519.716 46.3235C516.669 45.2145 497.048 39.1153 492.339 37.8677C485.875 36.1581 479.92 36.4353 475.488 38.6532C474.611 39.0691 472.395 39.5773 470.594 39.6697C467.87 39.8546 466.947 40.178 464.823 41.5642C461.73 43.5973 459.791 45.3994 459.791 46.3235C459.791 46.6931 459.191 47.5248 458.452 48.1717C457.713 48.7724 456.467 50.4359 455.682 51.7758C454.112 54.5945 452.681 55.7496 449.403 56.8586C446.818 57.7365 445.571 58.6144 444.325 60.5089C443.863 61.2482 442.109 62.4496 440.17 63.3737C438.323 64.2978 436.569 65.3144 436.245 65.6378C435.968 66.0075 435.599 67.4399 435.461 68.8723C435.23 71.1826 435.322 71.5984 436.661 73.5853C437.446 74.7867 438.092 76.2191 438.092 76.7736C438.092 78.3446 439.616 79.4073 441.739 79.4073C442.986 79.3611 444.602 78.8067 446.541 77.7439C448.157 76.8198 449.588 76.0805 449.772 76.0805C449.911 76.0805 450.604 77.1895 451.388 78.5294C452.127 79.8694 453.604 81.7177 454.666 82.688C456.559 84.3976 456.559 84.4438 455.867 85.7838C455.313 86.8466 455.266 87.4011 455.636 88.0942C456.282 89.3417 456.882 89.2493 459.283 87.6321C460.391 86.8928 461.961 86.1535 462.792 85.9687C464.915 85.599 465.608 84.5825 465.931 81.6715C466.162 79.6384 466.531 78.8067 467.824 77.5129C469.578 75.6184 470.871 73.3081 470.871 71.9681C470.871 71.4598 470.225 70.7205 469.301 70.166C465.793 68.0868 466.854 64.8985 472.21 61.433C475.118 59.4923 475.996 58.6606 476.827 56.951L477.796 54.8255H481.028C484.167 54.8255 484.26 54.8717 484.26 55.9807C484.26 57.4131 482.413 59.4461 479.412 61.433C477.288 62.773 477.104 63.0965 477.057 64.7599C477.011 65.7764 476.827 67.8095 476.642 69.2881C476.319 71.506 476.411 72.1067 477.104 72.846C478.212 74.0936 478.766 74.0474 486.799 72.1529C490.631 71.275 494.093 70.5357 494.555 70.5357C495.478 70.5357 498.11 72.1991 498.11 72.7998C498.11 73.4005 490.123 75.1563 487.353 75.1563C485.183 75.1563 484.675 75.295 484.213 76.1267C483.798 76.9584 483.89 77.3743 484.721 78.4832C485.552 79.6384 485.645 80.0542 485.275 80.9784C484.86 81.8563 484.537 81.9949 483.198 81.7639C479.874 81.2556 475.488 84.1666 476.18 86.4308C477.011 89.1569 477.011 89.2955 475.257 90.3121C473.041 91.6521 472.441 91.6059 470.548 89.9424C468.563 88.1866 467.593 88.1866 464.731 90.0349C462.653 91.3748 461.915 91.5597 456.836 91.9755L451.25 92.4838L450.511 90.4045C449.865 88.4638 449.865 88.279 450.65 87.4011C451.111 86.8466 451.573 85.83 451.712 85.0908C451.942 83.8894 451.804 83.6122 450.557 82.8728C448.341 81.6715 447.372 81.8563 446.587 83.7046C446.264 84.5825 445.941 86.1535 445.941 87.2162C445.941 91.7445 444.14 94.6555 440.816 95.441C435.414 96.781 435.414 96.781 433.522 99.5996C429.874 104.96 424.196 108.748 418.055 109.904C415.562 110.366 414.824 110.735 414.547 111.475C413.993 112.907 412.885 113.138 410.069 112.537C408.73 112.214 407.483 112.122 407.345 112.26C406.606 112.999 407.945 115.402 410.576 117.944L413.485 120.716L414.085 124.736C414.408 126.954 414.501 129.079 414.362 129.495C413.808 130.974 410.853 131.667 405.082 131.713C402.035 131.759 398.665 131.574 397.557 131.343C395.618 130.928 395.526 130.974 393.541 133.099C391.232 135.502 391.048 136.38 392.386 138.552C393.679 140.723 393.541 142.987 391.925 146.083C390.309 149.133 390.309 149.456 391.278 153.754L392.017 156.942H394.141C397.095 156.942 398.388 157.358 398.388 158.328C398.388 158.744 398.804 159.483 399.358 159.991C400.281 160.823 400.373 160.823 403.143 159.853C404.713 159.298 407.437 158.605 409.191 158.328C413.485 157.635 414.685 156.896 416.624 153.938C417.64 152.321 418.563 151.397 419.117 151.397C420.225 151.397 420.549 150.519 420.549 147.47C420.549 144.605 421.241 143.819 425.027 142.387C428.028 141.278 428.258 141.047 429.367 137.951C430.705 134.347 431.536 133.654 433.983 134.023C435.599 134.301 436.338 134.116 438.6 132.914C441.924 131.205 444.002 131.112 445.664 132.683C446.956 133.885 448.664 137.212 448.711 138.552C448.711 139.06 449.172 139.476 450.003 139.614C456.421 141.001 458.914 142.11 460.622 144.42C461.268 145.344 462.422 146.776 463.115 147.608C464.731 149.503 464.731 150.612 463.207 151.813C462.284 152.552 461.268 152.783 459.375 152.783C457.944 152.829 456.282 153.107 455.682 153.43L454.528 154.077L457.205 155.787C463.115 159.529 464.731 159.021 468.332 152.275C471.287 146.684 470.409 142.572 465.516 139.199C463.207 137.581 462.561 136.796 461.13 133.885C459.375 130.234 457.575 128.294 456.051 128.294C454.851 128.294 455.128 127.323 456.559 126.584C457.898 125.891 458.406 126.168 458.406 127.601C458.406 129.033 460.437 130.604 462.33 130.604C464.131 130.604 464.592 131.112 465.285 133.746C465.885 135.918 466.716 136.611 470.409 137.766C474.657 139.152 475.949 140.862 477.981 147.932C480.012 154.909 480.936 156.849 482.875 158.513C485.46 160.685 488.784 159.853 489.707 156.803C490.908 153.014 490.861 151.767 489.523 148.948L488.184 146.222L489.338 145.344C489.984 144.882 490.677 144.281 490.861 144.05C491.092 143.819 491.739 143.126 492.293 142.525C493.124 141.601 493.909 141.324 496.586 141.093C500.926 140.677 501.341 140.492 501.341 138.875C501.341 138.09 501.665 137.397 502.219 137.119C503.465 136.426 503.696 135.41 503.096 133.053C502.588 131.02 502.634 130.881 503.788 129.865C504.712 129.079 505.035 128.34 505.035 127.185C505.035 125.937 505.312 125.337 506.235 124.782C507.713 123.812 511.498 123.396 512.837 124.089C513.853 124.644 514.176 126.63 513.345 127.139C512.606 127.601 512.837 129.172 513.807 130.142C514.73 131.066 516.715 131.343 518.793 130.789C520.27 130.373 521.286 128.155 521.101 125.614L521.009 123.442L522.948 122.795C525.672 121.964 526.226 122.287 525.949 124.505C525.349 128.848 527.888 131.852 533.151 133.146C536.66 133.977 538.275 135.317 538.275 137.304C538.275 139.43 537.491 139.522 529.411 138.737C525.256 138.321 519.901 137.951 517.454 137.859C513.068 137.766 513.068 137.766 510.529 139.476C507.99 141.278 505.22 142.11 498.618 143.126C496.494 143.45 494.924 143.958 494.37 144.512C493.539 145.344 493.539 145.436 494.416 147.793C497.325 155.325 500.557 159.668 503.881 160.592C505.312 160.962 506.651 160.916 509.882 160.361C512.791 159.853 515.146 159.714 517.731 159.945C523.548 160.454 523.964 160.731 526.18 165.86C529.827 174.131 528.534 176.21 518.285 178.659C513.853 179.722 511.36 179.814 510.621 178.936C510.252 178.52 508.59 178.243 505.127 178.104C500.372 177.92 499.956 177.781 493.262 175.101C489.476 173.576 485.691 172.144 484.86 172.005C482.367 171.451 480.151 172.421 477.565 175.101C475.672 177.088 474.795 177.689 473.272 177.966C469.948 178.52 464.408 177.365 457.482 174.731C453.974 173.391 452.312 171.867 451.481 169.187C450.465 165.998 448.803 164.335 444.786 162.44C442.755 161.516 438.831 160.176 436.061 159.483C429.182 157.774 426.458 157.958 420.087 160.638C415.516 162.579 415.055 162.671 411.546 162.533C402.497 162.163 402.035 162.209 399.081 163.78C395.664 165.629 389.109 171.543 387.585 174.177C386.846 175.424 386.338 177.227 386.154 179.121C385.969 180.784 385.646 182.771 385.415 183.557C384.907 185.128 382.322 187.946 378.536 190.95C370.734 197.095 365.609 207.307 362.378 223.387C359.331 238.45 359.423 244.087 362.839 251.065C364.363 254.16 365.517 255.639 369.072 259.151C372.858 262.893 373.642 263.956 375.258 267.514C377.382 272.088 379.921 275.092 385.138 279.066C389.155 282.115 391.879 283.548 393.725 283.548C394.464 283.548 396.495 283.086 398.203 282.531C403.005 281.006 409.099 281.099 413.393 282.808C418.425 284.795 418.933 284.841 420.41 283.086C422.811 280.267 423.272 279.897 425.165 279.389C427.704 278.696 429.874 279.158 439.985 282.67C446.448 284.888 448.249 285.673 448.618 286.505C449.172 287.752 448.711 290.479 447.095 295.654C446.448 297.641 445.941 299.674 445.941 300.09C445.941 302.03 447.095 304.572 450.142 309.239C455.913 318.156 457.898 323.331 459.329 332.896C460.022 337.563 459.791 339.365 457.759 345.788C455.451 352.996 454.712 356.138 454.389 360.158C454.02 364.964 455.036 368.568 458.221 374.159C459.606 376.608 460.945 379.334 461.222 380.165C461.499 381.043 461.868 384.555 462.053 387.974L462.422 394.212L466.624 402.76C471.194 412.002 472.856 416.992 473.549 423.322C474.149 428.775 474.749 429.375 479.32 429.237C492.708 428.775 504.204 424.94 509.698 419.071C512.653 415.883 514.13 413.203 516.577 406.272C519.578 397.955 520.778 395.552 523.779 392.133C527.565 387.743 527.611 387.559 527.518 380.997C527.426 375.591 527.518 375.129 528.673 372.957C530.058 370.323 531.673 368.66 535.967 365.472C539.707 362.699 541.369 360.25 543.816 353.874C546.401 347.174 547.509 342.738 547.509 338.764C547.509 334.606 546.724 331.926 543.585 325.549C539.614 317.463 539.337 313.628 542.246 307.667C545.016 301.984 552.772 293.066 562.005 284.98C568.561 279.204 571.608 275.415 574.517 269.455C577.287 263.679 577.979 261.276 577.979 257.118C577.979 252.358 576.918 252.081 570.316 254.9C565.099 257.118 562.883 257.672 560.574 257.21C556.281 256.424 554.019 254.16 547.324 243.903C537.906 229.532 535.644 225.327 529.365 210.541C526.734 204.304 523.917 197.927 523.086 196.356C522.301 194.785 521.655 193.168 521.655 192.798C521.655 191.92 523.179 191.042 524.056 191.366C524.425 191.504 528.303 197.326 532.689 204.304C537.214 211.466 541.692 217.981 542.985 219.321C546.124 222.555 549.863 231.288 552.818 242.424C554.203 247.46 554.942 248.893 556.281 248.893C556.696 248.893 558.266 248.477 559.789 247.969C562.052 247.183 563.437 247.045 568.007 247.137L573.547 247.276L575.579 244.596C577.61 241.916 578.441 241.269 583.704 238.219C586.982 236.325 592.476 231.242 599.124 224.126C604.387 218.443 605.495 216.779 605.911 213.961C606.511 210.033 603.648 207.584 596.77 206.198C592.199 205.274 591.737 204.997 591.506 203.148C591.183 199.822 589.383 199.498 587.305 202.409C585.966 204.257 582.781 206.383 581.303 206.383C580.98 206.383 579.965 205.644 579.041 204.719C578.072 203.795 576.225 202.224 574.886 201.208C571.793 198.851 569.023 195.247 567.592 191.689C565.976 187.762 566.068 186.006 567.869 184.481C568.654 183.834 569.669 183.28 570.131 183.28C570.916 183.28 574.286 186.56 574.286 187.392C574.286 187.577 575.256 188.732 576.502 189.933C579.18 192.613 583.935 194.97 592.291 197.788C601.202 200.792 605.264 201.393 613.759 201.023C622.115 200.699 622.669 200.838 629.41 205.459C634.165 208.739 635.227 209.987 635.227 212.205C635.227 213.36 635.827 214.053 639.521 217.103C641.229 218.535 641.875 218.812 642.937 218.581C644.276 218.304 644.322 218.35 645.984 222.694C648.616 229.578 649.539 233.46 649.954 239.097L650.324 244.272L652.817 246.721C654.617 248.477 655.541 249.817 656.187 251.665C656.649 253.051 657.941 255.87 659.003 257.903C660.111 259.936 661.265 262.524 661.589 263.679C662.327 266.313 662.789 266.913 664.128 266.913C664.913 266.913 665.744 266.22 666.944 264.603C667.914 263.309 669.529 261.276 670.499 260.075C673.407 256.609 673.731 255.408 673.269 250.048C672.669 242.378 672.715 240.992 674.008 238.589C675.023 236.74 679.04 231.796 691.828 216.826C694.598 213.545 697.138 211.466 698.292 211.466C698.615 211.466 701.431 213.591 704.524 216.132L710.111 220.799L709.787 223.618L709.51 226.39L712.234 228.978C715.651 232.166 716.112 233.09 715.743 235.493C715.512 236.925 715.604 237.572 716.251 238.265C717.867 240.067 721.098 238.912 721.098 236.556C721.098 235.816 721.606 235.401 723.176 234.892L725.253 234.153L726.177 237.249C728.162 243.625 728.578 246.721 728.901 256.979C729.27 268.531 729.501 269.408 733.333 274.168C736.103 277.541 736.611 278.557 737.534 282.67C738.227 285.766 738.504 286.274 740.904 288.63C743.351 291.079 748.383 294.175 749.861 294.175C750.969 294.175 751.754 292.789 751.707 290.987C751.615 289.647 748.522 280.544 745.659 273.336C745.059 271.811 742.982 270.148 741.689 270.148C741.181 270.148 739.842 269.732 738.781 269.27C736.38 268.161 734.718 265.111 734.21 261.045C733.933 258.18 735.456 246.998 736.38 245.612C737.072 244.549 737.765 246.12 737.488 247.969C737.396 248.847 737.118 250.51 736.98 251.619C736.564 254.299 737.349 254.9 741.412 254.9C744.459 254.9 744.505 254.9 745.613 256.609C746.213 257.58 747.183 258.55 747.783 258.827C748.43 259.104 748.799 259.659 748.799 260.444C748.799 261.877 749.168 262.478 750.553 263.171C752.354 264.141 754.57 262.57 759.971 256.517C762.695 253.467 764.911 250.88 764.911 250.741C764.911 250.602 763.157 248.523 760.987 246.12C756.878 241.5 756.832 241.407 758.078 238.404C758.633 237.018 758.54 236.694 756.878 233.367C755.862 231.381 753.97 228.285 752.631 226.436C751.292 224.588 750.184 223.017 750.184 222.879C750.184 222.555 756.139 216.872 756.924 216.41C757.94 215.855 759.325 217.241 759.879 219.367C760.71 222.324 763.065 222.093 765.188 218.859C766.527 216.826 768.466 215.763 772.852 214.654C774.976 214.146 777.746 213.129 778.992 212.482C781.624 211.05 785.917 206.845 788.78 202.917C790.673 200.376 790.811 200.006 790.811 197.142C790.811 195.247 791.227 192.844 791.965 190.534C794.366 182.956 793.397 180.045 784.255 168.401C782.501 166.229 781.116 164.104 781.116 163.642C781.116 163.226 781.578 161.563 782.132 159.991C783.101 157.173 783.101 156.988 782.363 155.833C781.439 154.447 780.331 154.308 778.438 155.417C777.146 156.156 776.961 156.156 774.376 155.094C772.898 154.493 771.282 153.707 770.867 153.338C769.02 151.767 770.359 148.024 773.729 145.344C775.945 143.588 777.146 143.45 777.33 144.928C777.515 146.545 778.392 148.625 778.854 148.625C779.085 148.625 779.916 148.209 780.747 147.701C782.409 146.684 784.856 146.499 787.025 147.285C788.734 147.885 789.149 148.671 789.195 151.397C789.195 152.876 789.38 153.476 789.888 153.569C795.012 154.262 796.628 155.556 799.075 160.823C801.799 166.691 804.154 167.939 805.954 164.474C806.693 163.087 806.647 159.668 805.862 157.82C804.292 154.169 799.768 149.179 797.228 148.394C795.936 147.978 796.12 147.192 798.429 144.281C799.629 142.71 800.599 140.908 800.737 139.938C801.337 136.288 802.861 134.948 805.031 136.103C806.554 136.888 808.124 136.703 809.186 135.548C810.571 134.116 812.741 127.462 814.126 120.624C815.695 112.999 815.649 112.445 813.71 111.29C812.741 110.735 811.54 109.303 810.709 107.871C808.632 104.174 808.032 103.435 806 102.418C804.523 101.633 803.877 100.847 802.676 98.352C801.014 94.9327 799.906 94.101 797.044 94.101C795.843 94.101 794.597 93.6852 793.581 93.0383C792.704 92.4376 791.042 91.7907 789.934 91.6059C785.64 90.959 785.456 90.3583 787.764 84.1204C790.58 76.4963 790.165 76.9584 796.397 75.8495C801.337 74.9715 806.831 74.9715 811.448 75.8495C818.188 77.1432 819.758 76.7736 819.25 73.955C818.327 69.1033 819.297 67.3012 822.713 67.3012C824.652 67.3012 826.222 68.5026 828.345 71.5984C830.053 74.186 831.9 72.6612 831.9 68.6874C831.9 66.4695 832.085 65.8226 832.87 65.3144C833.378 64.9447 834.209 64.7599 834.716 64.8523C836.332 65.3144 837.071 67.0702 837.302 71.2288C837.579 75.5722 837.071 77.4667 835.363 78.3908C833.978 79.1301 833.101 80.7935 833.516 82.0411C833.655 82.5494 834.578 83.7508 835.547 84.6749C837.625 86.5694 839.241 89.8038 840.441 94.101C841.549 98.2596 843.119 101.171 845.058 102.788C846.905 104.266 852.86 106.531 853.46 105.93C854.384 105.052 853.507 89.0183 852.399 86.2921C852.029 85.4604 851.752 84.0742 851.752 83.2425C851.752 81.8101 851.614 81.6715 849.444 81.117C847.551 80.6549 847.135 80.3315 847.135 79.4998C847.135 78.9453 846.812 77.6053 846.443 76.5425C846.074 75.4336 845.797 74.5095 845.843 74.4633C847.135 73.6315 849.813 73.1233 852.768 73.1695L856.415 73.2619L859.508 70.3971C861.216 68.7798 863.71 66.7006 865.048 65.7302C866.987 64.344 867.449 63.7433 867.449 62.6806C867.449 60.8785 865.972 59.5847 862.74 58.6144C860.293 57.8751 860.201 57.7365 861.078 57.182C861.724 56.7662 861.955 56.2579 861.771 55.4724C861.586 54.5482 861.817 54.3172 863.156 54.0862C865.187 53.7165 869.988 54.2248 871.974 55.1027C872.851 55.4262 874.143 56.2579 874.928 56.9048C876.683 58.3834 879.314 58.4758 880.792 57.0896C881.346 56.5813 881.761 55.7958 881.669 55.38C881.438 54.1786 876.636 50.5745 872.666 48.6338C866.295 45.4456 860.016 43.5973 846.905 41.0097C835.963 38.838 830.608 38.3759 822.944 39.0229C810.571 40.0856 803.23 39.6697 794.412 37.4518C791.134 36.6201 788.688 36.3429 785.179 36.3429C779.685 36.3429 776.592 35.8808 768.743 34.0325C760.202 31.9532 755.632 31.2602 749.076 30.9367L743.074 30.6595L744.09 32.3691C744.644 33.2932 745.105 34.2636 745.105 34.5408C745.105 35.3263 743.397 35.0029 739.519 33.4781L735.733 31.9995L732.917 33.0622C725.023 36.0194 725.069 36.0194 723.361 35.2339C722.483 34.8643 721.283 34.125 720.637 33.5705C719.113 32.3691 702.077 27.4712 701.477 28.0719C701.2 28.3492 701.246 28.8112 701.616 29.4119C702.401 30.7057 702.354 30.7981 700.692 30.2898C699.861 30.0126 696.491 29.8278 693.167 29.8278C687.996 29.874 686.842 29.7354 684.718 28.8574C682.687 27.9795 682.041 27.9333 680.563 28.3492C674.146 30.1974 669.945 31.2602 669.068 31.2602C667.729 31.2602 666.159 29.7354 666.159 28.3954C666.159 27.8409 667.036 26.0388 668.098 24.4216C669.945 21.603 669.991 21.3719 669.345 20.263C668.144 18.0913 665.882 17.6292 659.511 18.2299C652.355 18.9692 650.185 18.923 647.923 18.0451C644.184 16.6127 642.383 16.1506 641.598 16.4279Z" fill="#EEEEEE"/>
<path d="M567.038 18.5535C564.822 20.1245 562.098 20.679 557.02 20.679C549.495 20.6328 546.54 22.25 543.585 28.1182C541.831 31.6299 541.554 33.9864 542.708 35.1416C543.493 35.9733 543.77 36.0195 547.74 36.1119C549.633 36.1581 551.157 36.5278 552.496 37.2671C554.158 38.145 554.712 38.2374 555.635 37.8216C557.251 37.0823 557.02 35.7423 554.942 33.663C553.188 31.9071 553.142 31.7685 553.604 30.1975C554.435 27.4713 556.05 26.27 560.113 25.5306C562.514 25.0686 564.868 24.1907 567.084 22.9893C570.824 20.91 572.209 19.6162 571.84 18.5535C571.47 17.6293 568.377 17.6293 567.038 18.5535Z" fill="#EEEEEE"/>
<path d="M718.005 20.9564C716.944 21.326 717.359 22.8046 718.836 24.0522C719.621 24.6991 721.376 25.577 722.807 25.9929C725.3 26.7322 726.085 26.7322 731.856 25.9005C733.749 25.6232 734.21 25.7156 735.18 26.6398C736.657 28.026 738.411 27.9798 740.027 26.4087C741.274 25.2074 741.505 25.1612 744.506 25.4846C746.86 25.7156 747.876 25.6232 748.522 25.115C750.23 23.8674 749.122 23.0357 745.244 22.7122C743.259 22.5274 739.704 22.1115 737.303 21.7419C733.148 21.095 719.16 20.5405 718.005 20.9564Z" fill="#EEEEEE"/>
<path d="M155.916 26.3623C154.531 26.7319 152.961 27.656 151.669 28.8574C150.514 29.9202 148.622 31.2601 147.467 31.8146C145.39 32.8312 144.328 34.5408 145.205 35.4187C146.036 36.2504 151.992 36.4353 155.316 35.7422C159.009 34.9567 159.379 35.1877 159.102 37.7291C158.871 39.4387 160.071 42.7194 161.271 43.6897C162.287 44.5676 165.565 44.3828 168.658 43.32C172.121 42.1187 174.014 42.1187 177.476 43.32C180.662 44.429 183.201 44.2904 187.079 42.7656C190.542 41.4256 190.819 41.0097 190.911 37.3132C190.957 35.1415 191.234 33.6629 191.742 32.8774C192.573 31.6298 192.758 31.5374 194.927 31.0753C195.851 30.8443 196.174 30.5208 196.174 29.6429C196.174 26.9629 190.542 26.8243 187.31 29.4581C185.417 30.9367 181.816 32.1843 179.184 32.1843C178.076 32.1843 177.291 31.8146 176.414 30.8443C175.722 30.105 174.568 29.3195 173.783 29.1346C173.044 28.9498 171.751 28.1181 170.967 27.2864L169.489 25.7154L163.811 25.7616C160.671 25.7616 157.116 26.0388 155.916 26.3623Z" fill="#EEEEEE"/>
<path d="M368.61 51.3141C367.825 51.8686 367.687 52.423 367.825 55.334C367.871 57.1823 368.148 58.9381 368.425 59.3078C369.118 60.0933 382.737 60.1857 384.215 59.354C387.077 57.8754 387.123 55.5189 384.353 52.6541L382.368 50.5286L380.244 51.083C378.998 51.4527 377.382 51.5451 376.366 51.4065C372.211 50.621 369.533 50.621 368.61 51.3141Z" fill="#EEEEEE"/>
<path d="M410.299 76.311C409.607 76.6807 408.499 78.0669 407.852 79.4069C406.79 81.4862 406.744 81.8558 407.344 82.4565C407.945 83.0572 407.945 83.3344 407.344 84.5358C406.052 86.9847 407.067 88.4633 410.992 89.6647C412.977 90.2654 413.115 94.5626 411.13 94.5626C409.93 94.5626 409.283 95.1633 408.776 96.7805C408.545 97.6122 408.683 97.9357 409.422 98.1205C410.161 98.3053 410.299 98.6288 410.068 99.7377C409.884 100.754 409.976 101.263 410.53 101.586C411.684 102.233 411.499 102.556 409.237 103.758C407.252 104.82 406.329 106.068 406.929 107.038C407.437 107.87 408.914 107.547 411.407 106.068C412.746 105.236 414.177 104.589 414.546 104.636C414.916 104.636 416.347 104.358 417.732 103.943C419.071 103.573 421.287 103.342 422.58 103.434L424.934 103.527L426.273 100.985C427.935 97.7971 427.704 96.8729 425.257 96.8729C422.995 96.8729 422.118 96.1798 421.472 93.7771C421.148 92.5295 420.502 91.513 419.625 90.8661C418.609 90.173 418.24 89.4799 418.24 88.5096C418.24 87.1234 416.855 85.3213 415.793 85.3213C415.47 85.3213 414.731 84.9979 414.177 84.582L413.115 83.8427L414.362 82.2255L415.562 80.6544L414.639 79.6379C414.131 79.0834 413.531 77.9745 413.3 77.2352C412.792 75.6179 412.007 75.3869 410.299 76.311Z" fill="#EEEEEE"/>
<path d="M398.572 90.8204C397.649 91.3749 397.049 92.2066 396.864 93.0845C396.679 94.0549 396.264 94.5169 395.387 94.748C394.14 95.0714 393.817 96.2728 394.787 97.2431C395.156 97.6128 395.017 98.2135 394.094 99.5997C393.402 100.616 392.848 101.679 392.848 101.956C392.848 102.788 395.017 102.927 397.51 102.28C398.895 101.864 400.557 101.448 401.25 101.309C402.958 100.94 403.605 99.5072 403.651 96.1804C403.697 93.7776 403.835 93.3618 404.759 92.9459C406.005 92.3914 406.098 91.0515 404.897 90.4046C403.466 89.6653 400.142 89.8501 398.572 90.8204Z" fill="#EEEEEE"/>
<path d="M807.755 94.8857C807.247 95.3478 807.385 97.2422 807.939 97.6119C808.216 97.7505 808.817 98.8594 809.324 100.061C809.832 101.216 811.079 103.018 812.094 104.035C814.726 106.668 817.773 111.058 818.743 113.646C819.204 114.847 820.174 116.834 820.959 118.035C821.697 119.237 822.574 121.039 822.851 122.055C823.544 124.365 824.421 124.55 826.268 122.794C828.53 120.715 828.253 119.606 824.698 116.372C822.02 113.923 821.697 113.507 822.159 112.675C822.944 111.243 822.805 110.272 821.466 107.731C819.389 103.804 817.173 101.077 813.202 97.7505C809.601 94.7471 808.447 94.1464 807.755 94.8857Z" fill="#EEEEEE"/>
<path d="M826.454 126.769C826.131 126.908 825.669 127.416 825.392 127.924C824.976 128.664 825.161 129.172 826.223 130.697C827.285 132.314 827.516 133.007 827.423 135.086C827.331 137.073 827.516 137.905 828.624 139.615C830.517 142.618 831.117 145.252 830.886 149.503C830.747 152.229 830.378 153.8 829.409 155.741C828.023 158.605 826.5 159.714 821.422 161.563C818.651 162.533 817.774 163.272 814.866 166.692C813.065 168.817 812.511 170.342 812.511 173.114C812.511 175.009 812.742 175.656 813.942 177.042C816.343 179.768 819.575 180.923 820.221 179.306C820.637 178.243 820.591 176.441 820.175 174.223C819.898 172.745 819.99 172.144 820.591 171.543C821.283 170.896 821.514 170.896 822.991 171.497C825.3 172.467 825.761 172.375 826.592 170.804C827.469 169.094 828.3 169.048 829.501 170.665L830.424 171.913L833.517 169.048C836.38 166.461 836.795 166.183 838.18 166.461C841.181 167.015 843.166 165.305 842.012 163.134C841.551 162.21 841.551 161.794 842.058 160.87C842.612 159.853 842.566 159.483 841.92 158.097C841.274 156.757 841.181 155.694 841.458 152.321L841.735 148.209L837.257 143.588C834.764 141.001 832.825 138.69 832.963 138.367C833.194 137.582 835.041 137.859 836.841 139.014C837.672 139.522 838.55 139.799 838.734 139.661C838.965 139.522 839.057 138.367 838.919 137.119C838.734 134.948 838.78 134.763 839.935 134.301C841.504 133.7 841.458 133.284 839.473 131.528C838.226 130.466 837.488 130.142 836.703 130.327C834.718 130.835 831.994 130.096 830.193 128.571C828.254 126.908 827.331 126.492 826.454 126.769Z" fill="#EEEEEE"/>
<path d="M793.535 205.32C791.919 207.907 791.549 209.201 791.919 210.726C792.427 212.805 795.197 212.759 796.444 210.634C797.322 209.109 797.83 205.828 797.46 204.303C796.952 202.316 795.197 202.778 793.535 205.32Z" fill="#EEEEEE"/>
<path d="M155.548 208.184C151.393 208.785 149.547 210.079 149.547 212.389C149.547 213.775 150.701 213.775 153.702 212.343C157.118 210.726 157.903 210.68 159.057 211.973C160.211 213.267 162.104 214.053 165.105 214.469C166.628 214.653 167.783 215.115 168.429 215.809C169.629 217.102 170.876 220.614 170.507 221.723C170.183 222.74 171.476 224.403 172.584 224.403C173.6 224.403 180.571 222.093 181.31 221.492C183.11 220.06 180.71 217.241 176.231 215.578C174.292 214.884 172.446 213.683 170.46 211.881C167.367 209.109 165.844 208.462 160.858 208.046C159.334 207.953 156.933 208 155.548 208.184Z" fill="#EEEEEE"/>
<path d="M763.942 222.463C761.588 222.74 759.787 226.575 760.803 229.209C761.264 230.503 762.465 230.78 764.173 229.902C766.62 228.655 768.883 225.605 768.375 224.265C768.052 223.341 765.42 222.278 763.942 222.463Z" fill="#EEEEEE"/>
<path d="M185.739 223.34C185.047 225.558 184.539 226.297 183.477 226.713C182.831 226.944 182.323 227.498 182.323 227.914C182.323 228.561 182.692 228.654 185.139 228.376C187.632 228.099 188.094 228.145 189.017 229.023C189.617 229.578 190.91 230.132 191.926 230.271C193.495 230.502 193.911 230.363 194.419 229.532C194.88 228.746 195.481 228.561 197.189 228.561C199.405 228.561 199.405 228.561 199.405 226.99C199.405 223.663 197.096 222.601 190.033 222.554C186.57 222.554 185.97 222.693 185.739 223.34Z" fill="#EEEEEE"/>
<path d="M797.368 226.344C794.46 227.129 793.306 231.057 794.552 235.724C795.429 238.866 800.184 248.477 803.416 253.513L806.509 258.319L806.463 262.847C806.371 267.098 806.463 267.514 807.71 269.547C809.279 272.088 811.911 273.752 815.189 274.26C819.482 274.907 822.622 273.382 822.668 270.61C822.668 269.455 822.114 268.438 819.252 264.511C818.328 263.217 816.989 260.213 815.928 257.117C815.004 254.253 813.158 249.447 811.911 246.444C809.787 241.453 809.233 240.576 805.817 236.971C802.955 233.876 801.8 232.212 800.738 229.717C800 227.915 799.307 226.344 799.169 226.205C799.03 226.067 798.199 226.113 797.368 226.344Z" fill="#EEEEEE"/>
<path d="M671.007 261.876C669.899 264.002 669.807 271.81 670.869 273.474C672.485 275.923 675.255 275.368 676.732 272.365C678.256 269.177 678.025 267.606 675.486 263.909C674.239 262.107 672.9 260.628 672.485 260.536C672.023 260.444 671.469 260.952 671.007 261.876Z" fill="#EEEEEE"/>
<path d="M787.489 271.072C786.566 271.996 786.15 272.874 786.196 273.706C786.427 276.755 786.289 277.032 783.703 278.234C781.857 279.112 780.564 280.221 778.717 282.531C777.286 284.333 775.486 285.996 774.424 286.551C773.408 287.059 772.485 287.66 772.392 287.891C772.3 288.168 771.746 288.815 771.146 289.416C770.269 290.294 769.761 290.432 768.053 290.201C766.298 289.924 765.929 290.063 765.283 290.941C764.59 291.911 764.636 292.142 765.467 293.759C766.021 294.868 766.344 296.439 766.344 298.103C766.344 300.921 767.222 303.093 768.607 303.878C769.114 304.109 769.761 305.126 770.084 306.05C770.915 308.684 771.192 308.869 774.793 309.054C777.517 309.192 778.486 309.469 780.102 310.532C781.718 311.641 782.595 311.872 785.042 311.918C788.736 311.965 790.167 310.902 790.628 307.621C791.044 304.525 792.013 302.492 793.906 300.552C795.384 299.073 795.568 298.565 795.522 296.763C795.43 295.053 795.568 294.637 796.353 294.406C797.554 294.036 797.554 292.696 796.307 291.587C794.83 290.247 794.137 288.584 793.768 285.442C793.491 282.947 793.583 282.439 794.368 281.561C795.707 280.128 796.815 277.772 796.815 276.478C796.815 275.877 796.169 274.814 795.338 273.983C793.491 272.273 789.89 269.686 789.336 269.686C789.105 269.686 788.274 270.286 787.489 271.072Z" fill="#EEEEEE"/>
<path d="M722.715 274.952C721.469 276.2 721.192 278.279 722.115 279.989C722.392 280.543 723.5 282.022 724.562 283.316C725.67 284.563 727.101 286.781 727.794 288.167C728.532 289.692 730.333 291.956 732.179 293.712C734.857 296.3 735.365 297.039 735.873 299.257C736.842 303.323 737.535 304.617 740.72 307.944C743.075 310.439 744.045 312.01 745.383 315.152C747.276 319.634 747.923 320.235 751.893 321.297C753.324 321.667 755.079 322.36 755.725 322.822C760.018 325.826 764.127 327.073 774.192 328.367C778.116 328.875 783.748 329.892 786.657 330.677C793.536 332.433 796.168 332.433 801.938 330.631L806.463 329.199L809.787 329.938C813.803 330.816 816.204 330.862 817.312 330.077C818.097 329.476 818.051 329.383 816.297 328.69C815.281 328.274 813.065 327.72 811.357 327.397C808.679 326.935 807.617 326.981 804.016 327.72C799.215 328.69 797.229 328.644 794.413 327.628C793.305 327.212 790.166 326.703 787.442 326.519C782.594 326.149 782.225 326.057 777.516 323.654L772.576 321.205H766.574C761.126 321.205 760.434 321.112 758.864 320.142C757.849 319.495 756.787 318.248 756.14 317C755.171 314.967 755.171 314.69 755.771 311.548C756.094 309.746 756.371 307.99 756.325 307.666C756.325 307.389 756.279 306.788 756.233 306.373C756.233 305.957 754.709 304.155 752.909 302.306C751.154 300.504 748.707 297.593 747.507 295.838C745.707 293.204 744.783 292.326 741.967 290.755C737.304 288.121 734.534 285.533 732.641 282.16C730.102 277.586 727.517 274.906 724.931 274.12C724.146 273.889 723.592 274.074 722.715 274.952Z" fill="#EEEEEE"/>
<path d="M839.377 300.274C837.207 301.337 837.392 304.664 839.7 305.819C841.732 306.836 842.055 307.344 842.055 310.024C842.055 313.258 842.563 313.905 845.61 314.552C848.98 315.245 850.226 315.892 851.981 317.694C852.904 318.665 854.335 319.45 856.459 320.051C861.076 321.437 861.768 322.5 861.307 327.444C861.168 328.876 861.214 330.309 861.399 330.632C861.584 330.909 862.738 331.233 864.031 331.371C865.277 331.556 868.047 332.064 870.217 332.619L874.141 333.543L877.05 332.157C880.605 330.447 881.805 330.678 884.852 333.451C887.437 335.853 890.115 337.055 893.716 337.424C896.163 337.702 896.532 337.655 896.532 336.962C896.532 335.576 895.194 333.543 893.439 332.249C888.545 328.691 885.914 325.041 886.837 323.239C887.114 322.731 887.299 321.945 887.207 321.437C887.022 320.282 877.419 309.562 875.572 308.453C874.557 307.806 873.264 307.575 871.048 307.575C867.539 307.575 865.877 307.067 864.215 305.496C863.569 304.941 862.599 304.294 862.045 304.156C860.568 303.694 857.429 304.664 854.52 306.466C853.089 307.344 851.519 308.037 850.965 308.037C849.626 308.037 847.272 306.004 846.256 303.925C844.548 300.644 841.732 299.119 839.377 300.274Z" fill="#EEEEEE"/>
<path d="M819.02 329.199C818.373 330.123 817.311 330.77 815.419 331.325C810.525 332.803 810.248 332.988 809.694 334.836C808.355 339.272 811.494 339.087 818.789 334.282C822.067 332.11 822.575 331.278 821.651 329.43C820.82 327.72 820.128 327.628 819.02 329.199Z" fill="#EEEEEE"/>
<path d="M868.603 340.197C867.356 341.491 866.479 344.171 865.556 349.854C864.263 357.617 861.862 362.561 859.369 362.561C858.169 362.561 853.737 359.511 850.69 356.6C847.227 353.273 847.089 351.471 849.951 346.989C851.013 345.326 850.828 343.893 849.49 343.154C848.381 342.6 839.702 341.768 834.808 341.768C830.007 341.768 829.73 342.045 827.791 347.913C826.96 350.362 825.99 352.58 825.667 352.858C825.113 353.32 824.513 353.135 822.62 351.887C820.958 350.824 819.527 350.316 817.865 350.178C814.864 349.947 814.079 350.547 809.278 356.785C798.428 370.878 795.243 374.159 790.58 375.915C789.287 376.423 786.286 377.162 783.886 377.532C778.484 378.502 776.268 379.472 774.098 381.875C771.051 385.248 770.82 386.727 769.62 412.002C769.297 418.887 768.927 421.705 768.235 424.016C766.988 427.989 766.988 429.791 768.281 430.669C770.128 431.963 772.898 431.593 775.622 429.745C779.961 426.788 780.608 426.649 787.625 427.019C795.012 427.389 795.566 427.25 800.183 423.415C805.861 418.748 810.986 417.131 820.173 417.085C825.806 417.085 826.129 417.316 826.498 421.798C827.006 427.25 828.714 429.237 832.038 428.128C833.654 427.573 833.931 427.62 834.485 428.359C834.808 428.821 835.224 430.392 835.362 431.824C835.916 437.369 836.101 438.201 837.024 439.633C838.363 441.851 840.302 442.498 845.888 442.498C850.044 442.498 851.105 442.683 853.321 443.653C856.461 445.039 858.123 445.086 860.431 443.931C862.601 442.775 864.448 440.835 867.356 436.445C870.08 432.333 871.558 430.946 877.605 427.019C883.053 423.415 886.054 420.273 889.424 414.497C894.457 405.949 894.457 405.949 894.457 396.985C894.457 387.79 894.364 387.466 889.424 380.859C879.868 368.152 875.343 359.095 873.035 347.96C871.558 340.659 870.311 338.533 868.603 340.197Z" fill="#EEEEEE"/>
<path d="M573.64 344.771C573.501 345.187 573.363 346.018 573.363 346.665C573.363 347.451 572.855 348.098 571.516 348.93C570.546 349.53 568.884 351.194 567.869 352.58C565.514 355.722 564.221 356.785 561.22 357.755C557.435 358.956 556.281 359.696 555.496 361.405C554.849 362.791 554.803 363.438 555.265 365.933C556.142 370.693 556.004 372.356 554.48 374.389C553.788 375.36 552.726 376.607 552.126 377.115C550.463 378.64 548.894 382.152 548.894 384.509C548.894 386.957 549.355 387.974 551.479 390.423C552.541 391.578 553.049 392.595 553.095 393.657C553.141 397.631 554.849 399.387 557.85 398.509C562.652 397.215 565.237 392.918 566.022 384.971C566.668 377.947 566.991 377.115 570.177 372.68C575.486 365.333 577.702 359.234 577.656 352.164C577.656 346.989 576.779 344.355 575.117 344.17C574.378 344.078 573.824 344.309 573.64 344.771Z" fill="#EEEEEE"/>
<path d="M847.829 451.231L843.212 451.508L842.427 453.125C841.135 455.621 841.365 457.838 842.981 459.594C843.858 460.565 844.643 460.981 845.105 460.796C845.52 460.657 846.906 460.518 848.244 460.518C852.03 460.518 852.446 459.964 852.446 455.02C852.446 452.71 852.446 450.861 852.446 450.907C852.446 450.954 850.368 451.092 847.829 451.231Z" fill="#EEEEEE"/>
<path d="M157.283 131.441C189.405 100.612 286.805 49.2485 419.43 90.4254" stroke="#ADADAD" stroke-width="2.1346" stroke-linecap="round" stroke-dasharray="10.67 10.67"/>
<path d="M600.728 80.7992C651.573 80.7992 706.893 117.125 706.893 163.297" stroke="#ADADAD" stroke-width="2.1346" stroke-linecap="round" stroke-dasharray="10.67 10.67"/>
<path d="M293.508 335.133C419.451 335.133 535.285 274.777 561.4 180.374" stroke="#ADADAD" stroke-width="2.31938" stroke-linecap="round" stroke-dasharray="11.6 11.6"/>
<circle cx="496.17" cy="205.864" r="15.3507" stroke="#C7C7C7" stroke-width="1.0673"/>
<ellipse cx="496.173" cy="205.864" rx="3.58864" ry="3.58679" fill="#5D91F4"/>
<circle cx="577.285" cy="80.9909" r="15.3507" stroke="#C7C7C7" stroke-width="1.0673"/>
<ellipse cx="577.288" cy="80.9909" rx="3.58864" ry="3.58679" fill="#5D91F4"/>
<circle cx="753.389" cy="251.759" r="15.3507" stroke="#C7C7C7" stroke-width="1.0673"/>
<ellipse cx="753.393" cy="251.759" rx="3.58864" ry="3.58679" fill="#5D91F4"/>
<circle cx="706.428" cy="186.653" r="15.3507" stroke="#C7C7C7" stroke-width="1.0673"/>
<ellipse cx="706.431" cy="186.653" rx="3.58864" ry="3.58679" fill="#5D91F4"/>
<circle cx="564.477" cy="154.635" r="15.3507" stroke="#C7C7C7" stroke-width="1.0673"/>
<ellipse cx="564.48" cy="154.635" rx="3.58864" ry="3.58679" fill="#5D91F4"/>
<circle cx="436.401" cy="102.336" r="15.3507" stroke="#C7C7C7" stroke-width="1.0673"/>
<ellipse cx="436.403" cy="102.336" rx="3.58864" ry="3.58679" fill="#5D91F4"/>
<circle cx="140.759" cy="147.162" r="15.3507" stroke="#C7C7C7" stroke-width="1.0673"/>
<ellipse cx="140.761" cy="147.163" rx="3.58864" ry="3.58679" fill="#5D91F4"/>
<circle cx="143.961" cy="246.421" r="15.3507" stroke="#C7C7C7" stroke-width="1.0673"/>
<ellipse cx="143.963" cy="246.421" rx="3.58864" ry="3.58679" fill="#5D91F4"/>
<circle cx="270.97" cy="335.007" r="15.3507" stroke="#C7C7C7" stroke-width="1.0673"/>
<ellipse cx="270.972" cy="335.007" rx="3.58864" ry="3.58679" fill="#5D91F4"/>
</svg>
