<svg width="1300" height="736" viewBox="0 0 1300 736" fill="none" xmlns="http://www.w3.org/2000/svg">
<path d="M517.423 1.30824C514.745 2.71499 513.206 2.98294 504.369 3.31788C498.009 3.65282 491.984 4.3227 487.968 5.26053C484.085 6.13138 478.863 6.73427 474.579 6.80126C461.324 7.06921 454.228 8.47596 440.839 13.567C428.521 18.3232 425.777 19.0601 416.739 20.1989C408.907 21.1367 404.957 22.4765 404.957 24.2181C404.957 24.7541 405.56 25.4909 406.296 25.8928C407.099 26.2948 407.635 27.2996 407.635 28.2374C407.635 31.0509 409.71 31.5868 419.752 31.4529C427.986 31.2519 429.057 31.3859 431.735 32.7926C437.023 35.4721 438.965 40.0943 437.425 46.0562C436.889 47.9319 436.689 49.8746 436.889 50.4105C437.358 51.6832 439.701 52.2191 443.45 51.8842C445.927 51.7502 446.462 51.8842 446.462 52.7551C446.462 53.6929 445.592 53.8938 441.509 54.1618C438.764 54.2958 436.354 54.5637 436.086 54.7647C435.885 55.0326 435.952 57.3772 436.287 59.9898L436.822 64.7459L434.479 67.2915C431.534 70.3729 430.463 73.4544 429.927 80.2201L429.526 85.3112L431.668 86.785C433.475 88.1247 433.743 88.6606 433.743 91.4741C433.743 95.6944 435.55 98.3069 443.985 106.145C450.211 111.972 450.747 112.307 452.086 111.437C452.822 110.968 454.964 107.618 456.705 104.068C459.851 97.637 459.985 97.57 466.746 92.6129C470.763 89.6655 474.646 86.2491 476.119 84.2394C478.863 80.4881 479.198 80.3541 487.097 79.9522C491.449 79.6842 493.591 79.1483 496.804 77.6076C501.156 75.598 506.11 71.1768 507.783 67.8943C508.921 65.7507 508.52 65.8177 512.068 67.0905C521.908 70.5739 535.163 65.6837 542.862 55.6355C545.205 52.6881 545.607 51.6832 545.272 50.2095C545.004 49.1377 544.736 47.9319 544.669 47.396C544.602 46.8601 546.142 45.3194 548.084 43.9796C550.025 42.6399 554.309 39.0225 557.657 35.9411L563.748 30.381L561.807 28.8403L559.933 27.3666L561.807 26.4957C563.748 25.6249 564.083 24.6201 562.811 23.2803C560.937 21.4046 568.368 17.3854 579.146 14.5049C588.183 12.0263 590.191 10.3516 586.777 8.14102C585.304 7.1362 584.033 7.1362 574.727 7.87307C564.351 8.74391 564.284 8.74391 562.41 7.27017C558.058 3.7868 557.054 3.51884 545.54 3.04993C539.113 2.78198 532.954 2.1121 530.879 1.5092C523.917 -0.43345 520.77 -0.500438 517.423 1.30824Z" fill="#EEEEEE"/>
<path d="M430.732 3.18367C428.523 3.51861 418.013 4.05451 407.302 4.38945C386.616 5.12632 382.064 5.72921 372.893 9.07861C368.474 10.7533 366.533 11.0213 357.763 11.3562C345.914 11.8251 339.621 12.8299 339.019 14.3707C338.751 15.1075 339.554 16.2463 341.429 17.988C343.772 20.1316 344.107 20.8015 343.772 22.3422C343.504 23.4141 342.433 25.0888 341.295 26.0936L339.287 27.9692L337.078 26.5625C334.467 24.9548 329.513 24.7538 327.571 26.1606C326.3 27.0984 326.3 27.1654 327.571 29.577C328.91 32.0555 332.324 34.6011 334.333 34.6011C335.002 34.6011 336.609 35.4049 337.881 36.3427C339.421 37.5485 341.429 38.2854 343.973 38.6203C346.048 38.8883 347.588 39.1562 347.387 39.2232C347.186 39.2902 343.571 39.6252 339.287 39.8931C330.383 40.496 326.032 42.1037 323.823 45.5871C322.685 47.3958 322.618 48.3336 323.019 52.3529C324.157 62.937 323.287 67.4922 320.074 67.9611C317.931 68.296 316.459 66.7553 313.982 61.7982C311.773 57.31 311.371 53.8936 312.71 51.0801C313.112 50.0753 316.726 47.1948 321.078 44.1803C326.567 40.496 328.509 38.8883 327.973 38.3524C327.571 37.9505 324.693 37.4815 321.68 37.4146C314.584 37.0796 311.84 38.2184 309.229 42.5726C306.283 47.3958 303.94 49.8743 299.924 52.6878C297.848 54.0946 295.037 56.4392 293.698 57.9129C292.359 59.3866 290.685 60.9274 290.016 61.3293C289.279 61.6642 283.79 62.937 277.698 64.0088C268.393 65.8175 265.38 66.0854 258.016 65.9515C252.259 65.8175 246.636 66.1524 241.28 66.9563C234.385 67.9611 232.779 68.0281 229.9 67.2912C226.821 66.4874 226.553 66.2864 226.754 64.6117C227.021 62.2671 225.816 61.6642 219.858 61.1953C216.913 60.9274 211.959 59.6546 206.47 57.7119C196.428 54.2286 192.545 53.8936 184.847 56.0372C179.223 57.578 174.872 57.7119 173.064 56.3722C169.851 53.8936 164.83 55.5013 158.738 60.7934C156.998 62.3341 156.194 62.6021 154.387 62.3341C150.504 61.6642 147.626 60.5924 144.011 58.5828L140.463 56.5731L132.965 57.31C121.785 58.3818 118.237 57.6449 110.472 52.4199C107.459 50.4102 106.388 50.0083 103.242 50.0083C97.9531 50.0083 77.4682 54.5635 51.2931 61.5972C48.0798 62.4011 47.6111 63.4729 49.4856 65.9515C51.36 68.497 50.8245 71.4445 48.0798 73.7221C46.0045 75.4638 44.7326 75.7987 37.1679 76.4686C32.3479 76.8705 29.804 77.8753 27.9965 79.885C25.7204 82.5645 25.9213 83.3014 30.0718 86.3158C32.2809 87.9235 34.0884 89.3303 34.0884 89.5312C34.0884 89.7322 29.6701 92.0098 24.3146 94.5553C18.8921 97.1009 14.0721 99.5795 13.6035 100.115C11.9969 101.656 12.4655 104.068 14.6746 105.608C17.0846 107.283 17.2855 109.628 15.411 112.709C14.7416 113.848 10.9927 117.13 7.04302 120.078C-0.722502 125.906 -1.79361 127.714 2.49082 127.714C7.64551 127.714 15.7458 124.968 28.0635 119.006C46.3392 110.231 61.7364 105.608 72.916 105.608C78.4724 105.608 80.6146 106.546 84.0287 110.298C85.5015 111.905 87.5768 113.312 89.5851 113.982C93.4679 115.255 95.0745 116.862 97.3506 121.819C100.966 129.657 101.836 140.509 100.296 157.189C98.8234 173.668 96.4134 179.831 87.5098 190.147C78.0038 201.133 75.5938 208.435 75.393 227.192C75.2591 239.249 75.4599 239.986 80.9493 246.618C86.4387 253.116 88.6479 259.48 92.3298 278.705C94.0034 287.615 96.8151 295.117 100.43 300.276C104.112 305.501 104.648 305.836 106.656 304.362C107.727 303.558 107.66 302.955 104.781 294.515C99.9614 279.911 97.1498 261.021 99.7606 260.485C100.564 260.351 101.166 261.824 102.505 267.183C104.982 277.098 106.455 280.514 112.413 290.428C118.371 300.477 120.112 304.965 121.116 313.539C122.053 321.31 124.195 325.597 129.484 330.621C135.04 335.779 142.404 339.263 155.592 343.081C169.918 347.167 173.198 348.373 181.031 352.459C184.713 354.402 189.466 356.479 191.675 357.081C196.696 358.555 200.578 362.106 205.465 369.876C211.892 380.058 212.695 380.929 216.444 382.604C219.457 383.944 220.059 384.547 220.729 386.757C221.8 390.307 223.741 391.982 226.887 391.982C229.766 391.982 231.105 391.044 233.314 387.494C236.527 382.403 238.937 384.681 241.414 395.198C242.285 398.949 243.624 402.901 244.36 404.107C246.502 407.59 246.033 409.466 241.147 416.768C235.791 424.873 230.636 434.855 229.364 439.879C228.628 442.759 228.561 444.501 229.03 447.515C229.565 450.664 229.498 452.204 228.628 455.219C226.754 461.784 226.887 462.521 230.502 466.607C233.582 470.09 235.055 473.574 236.26 480.54C238.737 494.742 247.172 506.8 259.355 513.499C267.59 518.054 271.138 520.934 275.824 527.164C286.736 541.767 287.941 546.457 285.129 565.146C283.054 578.946 283.254 584.573 286.133 594.621C289.346 605.674 289.949 611.904 289.079 624.766C288.275 636.087 288.677 643.723 290.284 649.082C290.819 650.958 293.229 656.384 295.572 661.073C301.396 672.729 303.271 679.294 303.472 688.873C303.672 695.773 303.873 696.778 305.748 700.596C308.158 705.486 317.597 717.544 323.622 723.506C328.509 728.396 335.27 732.147 341.63 733.621C346.584 734.76 359.437 736.167 360.039 735.564C360.575 735.095 357.429 732.616 349.663 727.324C341.429 721.697 337.68 717.611 336.274 712.721C335.069 708.501 335.337 706.893 338.416 699.256C339.688 696.242 340.692 692.825 340.692 691.687C340.692 688.672 339.019 685.993 336.542 685.122C330.986 683.045 330.718 682.442 332.525 676.279C334.534 669.246 334.935 664.021 333.73 659.599C333.195 657.59 332.793 655.915 332.86 655.848C334.333 655.446 337.345 652.7 340.09 649.417C342.433 646.604 344.91 644.46 347.588 643.053C352.675 640.307 353.88 639.168 355.822 635.35C357.094 632.871 357.429 631.13 357.429 627.177C357.429 621.014 358.098 620.076 364.725 617.397C367.403 616.258 371.085 614.316 372.826 613.043C379.788 607.952 385.746 597.167 389.026 583.635C391.034 575.395 392.708 571.711 394.984 570.505C395.654 570.103 397.394 567.759 398.867 565.28C401.812 560.256 403.821 558.581 411.653 554.964C423.837 549.337 425.912 543.71 421.695 527.633C417.544 511.69 419.218 505.795 433.41 486.77C443.385 473.373 444.456 470.559 441.711 465.133C437.427 456.827 426.783 449.056 415.67 446.243C413.193 445.64 409.042 443.764 405.963 441.888C400.942 438.874 395.386 436.529 393.244 436.529C391.101 436.529 385.746 434.252 384.072 432.644C383.068 431.706 381.729 429.562 381.06 427.888C380.457 426.213 378.65 423.199 377.043 421.189C375.236 418.911 373.763 416.232 373.093 413.82C370.349 403.839 369.01 402.633 359.102 401.361C350.667 400.222 348.994 399.284 343.036 391.915C337.948 385.685 335.27 383.743 329.647 382.47C325.831 381.599 325.028 381.13 323.756 379.187C321.613 375.838 319.07 375.235 313.245 376.642C308.626 377.781 308.225 377.781 305.078 376.642C302.467 375.771 300.727 375.57 297.714 375.905L293.631 376.374L291.087 373.56C289.279 371.618 288.141 370.881 287.405 371.149C283.121 372.757 272.476 373.226 274.016 371.752C274.686 371.082 273.012 369.541 271.606 369.541C269.999 369.541 259.824 373.962 258.217 375.369C257.615 375.905 256.945 377.379 256.745 378.585C256.142 381.733 254.134 382.939 249.582 382.939C246.167 382.939 245.364 382.671 242.218 380.259C240.209 378.786 237.933 377.58 237.13 377.58C236.327 377.58 233.917 378.317 231.841 379.254C229.766 380.192 227.624 380.929 227.021 380.929C225.281 380.929 220.394 376.374 218.921 373.36C217.114 369.608 217.181 367.666 219.256 362.708C221.599 357.081 221.867 349.11 219.791 346.296C216.712 342.21 209.013 339.799 203.993 341.473C201.516 342.277 201.181 342.21 200.378 341.071C198.905 339.129 199.24 337.99 202.118 334.105C204.461 331.023 204.796 330.085 204.796 327.071C204.796 324.592 205.198 322.985 206.403 321.31C209.549 316.621 209.214 313.941 205.198 312.266C202.654 311.195 199.842 311.664 195.491 313.874C191.541 315.951 189.6 318.027 189.064 320.841C188.395 324.123 187.123 325.128 180.964 326.669C174.136 328.344 171.926 328.344 169.583 326.535C166.839 324.391 166.169 323.453 163.96 319.032C160.144 311.329 160.613 305.166 165.701 295.051C168.311 289.825 168.646 288.754 168.512 285.069L168.378 280.916L171.859 277.701C176.01 273.882 182.838 270.399 186.922 269.93C189.064 269.662 190.604 269.93 192.612 271.002C196.294 272.877 198.102 272.81 205.131 270.399C211.892 268.121 214.503 267.92 217.85 269.528C220.059 270.6 220.327 270.6 222.536 269.528C228.896 266.514 232.912 270.198 232.912 279.174C232.912 282.792 237.599 295.452 239.071 295.72C240.41 295.988 243.49 292.974 244.025 290.83C244.293 289.825 244.092 286.945 243.624 284.466C242.954 280.849 242.954 279.241 243.624 276.495C244.159 274.284 244.293 271.27 243.958 267.786C243.624 263.633 243.69 262.092 244.561 260.485C245.163 259.346 245.632 257.738 245.632 256.867C245.632 255.996 246.234 254.389 246.904 253.183C248.042 251.441 249.113 250.771 253.799 249.365C258.485 247.958 259.824 247.221 262.368 244.609C264.041 242.867 266.451 240.924 267.79 240.254C271.004 238.58 271.606 237.642 272.343 233.823C272.811 231.211 273.481 230.139 275.69 228.196C277.229 226.924 278.434 225.517 278.434 225.182C278.434 220.828 282.652 215.201 290.484 209.44C296.175 205.22 299.589 203.746 305.815 202.808C311.639 201.87 314.25 200.53 315.254 197.918C315.588 196.913 316.258 195.171 316.66 194.1C317.865 190.884 332.458 181.975 336.475 181.975C338.55 181.975 339.019 183.181 337.613 184.721C336.475 185.927 336.542 185.994 338.483 185.994C340.96 185.994 346.517 184.118 347.186 183.114C347.454 182.645 347.856 180.635 348.123 178.625C348.324 176.616 348.86 173.333 349.328 171.391C349.864 168.778 349.864 166.969 349.328 164.893C348.793 162.749 348.793 161.61 349.395 160.539C350.734 157.993 358.567 155.18 370.282 153.103C373.897 152.433 374.968 152.433 375.838 153.17C377.311 154.376 377.177 154.912 373.629 162.012C369.746 169.783 369.88 170.587 375.303 172.998C380.993 175.544 385.277 175.812 388.223 173.802C391.235 171.726 392.173 168.979 392.173 161.677C392.239 156.921 392.574 155.046 393.98 151.629C396.39 145.935 395.988 143.524 391.302 135.552C385.746 126.04 381.06 115.121 378.851 106.546C377.646 101.656 375.169 101.991 372.223 107.35C368.809 113.647 364.525 112.91 358.767 105.005C353.077 97.2349 348.324 95.2922 335.002 95.6941C327.906 95.8951 326.433 96.0961 324.827 97.3019C322.149 99.2445 320.676 102.728 319.538 109.561C318.333 117.063 317.262 120.078 314.183 124.767C311.304 129.121 306.417 133.274 301.396 135.552C299.522 136.423 297.781 137.562 297.58 138.098C297.38 138.633 297.447 140.576 297.647 142.452C298.116 146.27 296.777 148.481 294.032 148.481C292.091 148.481 287.539 144.461 285.33 140.643C283.656 137.763 283.589 136.557 284.794 131.667C285.196 129.992 284.928 129.724 279.305 126.777C276.091 125.035 271.004 121.886 268.058 119.81C259.824 113.915 258.083 110.231 261.23 105.541C263.64 101.924 267.054 100.584 282.786 97.0339C290.886 95.1582 298.183 93.4166 298.986 93.0816C300.861 92.4117 305.413 88.5264 311.907 82.0286C314.718 79.2151 318.065 76.4686 319.203 75.7987C320.408 75.1958 324.09 74.325 327.371 73.7891C334.4 72.7842 336.14 71.6454 341.697 64.7457C343.772 62.2671 345.847 59.9895 346.383 59.7886C347.521 59.3866 355.956 63.6069 358.968 66.1524L361.044 67.8941L359.169 71.0425C354.55 78.8801 350.065 81.8276 343.772 81.0908C341.161 80.7558 339.755 80.8898 339.019 81.4927C337.412 82.8324 337.814 85.244 339.889 86.8517C341.496 88.1915 342.165 88.2585 345.713 87.7896C353.479 86.7847 354.282 86.9857 358.031 90.3351C363.119 94.9573 372.491 98.2397 375.236 96.364C376.508 95.5602 377.579 92.8806 377.177 91.6079C376.909 90.6031 377.244 90.2681 379.051 89.9332C383.805 89.0623 385.478 86.0479 383.135 82.4975C381.863 80.5548 382.131 77.7414 383.537 77.9423C384.072 78.0093 385.88 78.5452 387.553 79.1481C391.704 80.6888 400.273 80.2869 402.817 78.3442C407.101 75.1958 404.825 70.6406 396.926 66.4874C392.039 63.8748 390.566 62.3341 391.637 60.6594C392.641 59.0517 392.306 55.1664 390.901 52.8888C389.629 50.7452 388.089 50.0753 382.064 49.0705C380.056 48.7355 378.851 47.7307 376.039 44.5153C374.031 42.2377 371.353 39.8931 369.813 39.2232C367.403 38.1514 367.336 38.0174 368.876 38.0174C369.947 37.9505 372.022 36.8786 373.763 35.3379C377.378 32.3905 400.005 20.6006 405.963 18.5909C408.172 17.854 413.595 16.7822 418.013 16.1793C422.431 15.5765 428.322 14.5046 431.067 13.8348C437.494 12.2271 448.606 8.54271 449.41 7.80584C450.414 6.80102 444.791 3.78656 440.707 3.11668C436.356 2.37981 436.423 2.37981 430.732 3.18367Z" fill="#EEEEEE"/>
<path d="M882.47 10.6195C880.528 11.5574 880.528 13.5 882.47 14.7728C886.085 17.1844 890.034 18.0552 897.398 18.1892C903.892 18.3232 905.365 18.5911 908.578 20.1318C913.532 22.4764 923.105 23.2803 926.251 21.6056C929.13 20.1318 929.398 19.462 927.791 17.8542C926.519 16.5815 925.716 16.4475 919.758 16.6485L913.13 16.7824L909.515 14.3039C907.507 12.8971 904.963 11.4904 903.892 11.2224C900.411 10.2176 884.143 9.74869 882.47 10.6195Z" fill="#EEEEEE"/>
<path d="M679.965 11.8251C668.183 12.9639 658.543 14.7056 656.401 16.1793C653.991 17.787 653.389 20.4666 654.928 22.8781C656.267 24.8878 658.008 25.8256 665.639 28.5051C671.129 30.4478 671.731 30.5148 673.137 29.5769C674.007 28.974 674.744 28.1032 674.744 27.6343C674.744 27.1654 675.346 25.9596 676.15 24.9548C677.288 23.548 678.091 23.2131 680.568 23.2131C682.241 23.2131 685.053 23.749 686.861 24.3519C690.743 25.7586 690.944 25.6246 693.153 20.1316C694.024 17.988 695.095 16.1123 695.429 15.9784C696.568 15.5764 695.028 13.2988 692.819 12.16C690.743 11.0882 688.333 11.0213 679.965 11.8251Z" fill="#EEEEEE"/>
<path d="M312.307 19.1939C309.563 20.0647 307.956 21.7394 307.153 24.8209C306.684 26.5626 305.613 28.2373 304.14 29.4431C301.529 31.6537 301.261 32.9264 303.27 33.9313C305.211 35.0031 304.609 37.2807 301.998 38.8214C300.86 39.4913 297.513 40.3621 294.634 40.764C288.609 41.5679 286.467 42.6397 286.467 44.9843C286.467 47.1949 288.274 47.8648 295.571 48.4007C301.864 48.9366 303.404 48.2667 304.207 44.5824C304.676 42.6397 307.353 39.9602 308.893 39.9602C309.362 39.9602 310.968 38.3525 312.508 36.3428C313.981 34.3332 316.726 31.3857 318.6 29.778C323.889 25.3568 325.094 22.3423 322.617 19.8638C321.144 18.39 316.056 18.1221 312.307 19.1939Z" fill="#EEEEEE"/>
<path d="M285.263 19.9309C284.058 20.2658 281.045 21.6726 278.568 23.0793L274.083 25.5579L265.849 25.3569C256.61 25.156 251.657 26.0938 248.51 28.8403C246.837 30.247 246.77 30.582 247.506 32.1897C248.443 34.3333 250.251 35.0702 256.209 35.874C258.686 36.209 263.171 37.0798 266.117 37.8837C271.338 39.2904 271.673 39.2904 274.485 38.2186C276.091 37.6157 280.041 36.8789 283.254 36.6109C291.488 35.941 294.233 33.9314 292.626 29.7781C291.957 27.9025 292.091 27.6345 294.233 25.6249C296.107 23.8832 296.576 23.0123 296.375 21.4716C296.174 19.529 296.107 19.529 291.823 19.395C289.413 19.328 286.468 19.5959 285.263 19.9309Z" fill="#EEEEEE"/>
<path d="M930.334 23.8157C929.731 24.0167 928.125 25.4904 926.853 27.0312C923.974 30.3136 923.305 30.5146 909.38 30.9165C900.611 31.1844 899.004 31.4524 896.326 32.7921C894.117 33.9309 893.113 34.8688 892.644 36.4765C891.975 38.7541 891.707 38.8881 886.151 39.6249C882.402 40.0938 881.197 41.2326 882.268 43.2423C882.937 44.582 882.804 44.649 879.791 44.649C874.77 44.649 872.226 45.7208 869.214 49.0032C867.674 50.6779 866.068 52.0177 865.666 52.0177C865.197 52.0177 864.126 50.8119 863.189 49.2712C861.047 45.9218 858.637 45.7878 858.302 49.0032C857.967 52.5536 857.633 53.0895 856.294 51.7498C855.691 51.1469 854.419 49.0702 853.482 47.1276L851.808 43.6442H846.386C841.968 43.6442 840.629 43.9122 839.491 44.917C835.943 48.1324 837.616 54.4293 843.307 59.4534L846.453 62.1999L842.905 61.731C840.963 61.463 837.817 60.8601 835.876 60.3242C834.001 59.7883 829.717 59.3864 826.37 59.3864C822.621 59.3194 819.341 58.9175 817.667 58.3146C816.194 57.7117 814.253 57.1088 813.316 56.9748C811.642 56.6399 811.642 56.6399 813.65 58.3146C814.788 59.2524 816.663 60.3912 817.868 60.7931C819.675 61.396 819.943 61.731 819.274 62.4678C818.403 63.5397 816.127 63.6736 814.788 62.8028C814.186 62.4678 810.972 63.0037 806.487 64.0756C799.86 65.8172 799.123 65.8842 798.789 64.8794C797.316 60.9941 790.555 62.6018 782.521 68.6977C780.513 70.1715 778.572 71.4442 778.17 71.4442C776.563 71.4442 774.957 69.5016 774.555 67.023C774.22 64.9464 773.818 64.3435 772.614 64.2095C770.07 63.8076 767.794 65.8172 767.794 68.2958C767.794 69.5016 768.195 71.1093 768.731 71.8462C769.668 73.1189 769.467 73.3199 764.781 75.7315C762.103 77.1383 758.89 79.1479 757.685 80.2197C755.877 81.8274 754.873 82.1624 752.196 82.1624C749.986 82.1624 748.112 82.6313 746.639 83.5691L744.363 84.9759L741.484 83.5691C738.405 82.0954 731.108 75.1286 731.845 74.3917C732.112 74.1238 734.121 74.7937 736.397 75.7985C740.547 77.6072 740.614 77.6072 744.028 76.5354C745.903 75.9325 748.648 75.4636 749.986 75.4636C757.551 75.4636 760.095 69.5686 753.601 67.157C749.183 65.5493 720.732 56.7069 713.904 54.8982C704.531 52.4196 695.896 52.8216 689.469 56.037C688.197 56.6399 684.984 57.3768 682.373 57.5107C678.423 57.7787 677.084 58.2476 674.005 60.2572C669.52 63.2047 666.708 65.8172 666.708 67.157C666.708 67.6929 665.838 68.8987 664.767 69.8365C663.695 70.7074 661.888 73.119 660.75 75.0616C658.474 79.1479 656.399 80.8226 651.645 82.4303C647.897 83.7031 646.089 84.9759 644.282 87.7224C643.612 88.7942 641.068 90.5359 638.257 91.8756C635.579 93.2154 633.035 94.6891 632.566 95.158C632.165 95.6939 631.629 97.7706 631.428 99.8472C631.094 103.197 631.228 103.799 633.169 106.68C634.307 108.422 635.244 110.498 635.244 111.302C635.244 113.58 637.453 115.12 640.533 115.12C642.34 115.053 644.683 114.25 647.495 112.709C649.838 111.369 651.913 110.297 652.181 110.297C652.382 110.297 653.386 111.905 654.524 113.848C655.595 115.79 657.737 118.47 659.277 119.877C662.022 122.355 662.022 122.422 661.018 124.365C660.214 125.906 660.147 126.709 660.683 127.714C661.62 129.523 662.49 129.389 665.972 127.044C667.578 125.973 669.854 124.901 671.059 124.633C674.139 124.097 675.143 122.623 675.611 118.403C675.946 115.455 676.482 114.25 678.356 112.374C680.9 109.627 682.775 106.278 682.775 104.335C682.775 103.599 681.837 102.527 680.498 101.723C675.411 98.7084 676.95 94.0862 684.716 89.0621C688.933 86.2486 690.205 85.0428 691.41 82.5643L692.816 79.4828H697.502C702.054 79.4828 702.188 79.5498 702.188 81.1575C702.188 83.2342 699.511 86.1816 695.159 89.0621C692.08 91.0048 691.812 91.4737 691.745 93.8853C691.678 95.359 691.41 98.3065 691.143 100.45C690.674 103.666 690.808 104.536 691.812 105.608C693.419 107.417 694.222 107.35 705.87 104.603C711.427 103.331 716.447 102.259 717.117 102.259C718.456 102.259 722.272 104.67 722.272 105.541C722.272 106.412 710.69 108.958 706.674 108.958C703.527 108.958 702.791 109.159 702.121 110.364C701.519 111.57 701.653 112.173 702.858 113.781C704.063 115.455 704.197 116.058 703.661 117.398C703.059 118.671 702.59 118.872 700.649 118.537C695.829 117.8 689.469 122.02 690.473 125.303C691.678 129.255 691.678 129.456 689.134 130.93C685.921 132.872 685.051 132.805 682.306 130.394C679.427 127.848 678.021 127.848 673.871 130.528C670.858 132.47 669.787 132.738 662.423 133.341L654.323 134.078L653.252 131.064C652.315 128.25 652.315 127.982 653.453 126.709C654.122 125.906 654.792 124.432 654.993 123.36C655.327 121.618 655.127 121.216 653.319 120.145C650.106 118.403 648.7 118.671 647.562 121.35C647.093 122.623 646.625 124.901 646.625 126.441C646.625 133.006 644.014 137.227 639.194 138.365C631.361 140.308 631.361 140.308 628.617 144.394C623.328 152.165 615.094 157.658 606.19 159.333C602.575 160.002 601.504 160.538 601.103 161.61C600.299 163.687 598.693 164.022 594.609 163.151C592.668 162.682 590.86 162.548 590.659 162.749C589.588 163.821 591.53 167.304 595.345 170.988L599.563 175.008L600.433 180.836C600.902 184.051 601.036 187.133 600.835 187.736C600.032 189.879 595.747 190.884 587.379 190.951C582.961 191.018 578.074 190.75 576.467 190.415C573.656 189.812 573.522 189.879 570.643 192.961C567.296 196.444 567.028 197.717 568.97 200.865C570.844 204.014 570.643 207.296 568.3 211.784C565.957 216.205 565.957 216.674 567.363 222.904L568.434 227.526H571.513C575.798 227.526 577.672 228.129 577.672 229.536C577.672 230.139 578.275 231.211 579.078 231.948C580.417 233.153 580.551 233.153 584.567 231.747C586.844 230.943 590.793 229.938 593.337 229.536C599.563 228.531 601.304 227.459 604.115 223.172C605.588 220.828 606.927 219.488 607.73 219.488C609.337 219.488 609.805 218.215 609.805 213.794C609.805 209.641 610.81 208.502 616.299 206.425C620.65 204.817 620.985 204.483 622.592 199.994C624.533 194.769 625.738 193.764 629.286 194.3C631.629 194.702 632.7 194.434 635.981 192.693C640.801 190.214 643.813 190.08 646.223 192.358C648.097 194.099 650.574 198.923 650.641 200.865C650.641 201.602 651.311 202.205 652.516 202.406C661.821 204.416 665.436 206.023 667.913 209.373C668.85 210.712 670.524 212.789 671.528 213.995C673.871 216.741 673.871 218.349 671.662 220.091C670.323 221.163 668.85 221.497 666.105 221.497C664.03 221.564 661.62 221.966 660.75 222.435L659.076 223.373L662.959 225.852C671.528 231.278 673.871 230.541 679.093 220.761C683.377 212.655 682.105 206.693 675.009 201.803C671.662 199.458 670.725 198.32 668.649 194.099C666.105 188.807 663.495 185.994 661.285 185.994C659.545 185.994 659.947 184.587 662.022 183.515C663.963 182.51 664.7 182.912 664.7 184.989C664.7 187.066 667.645 189.343 670.39 189.343C673.001 189.343 673.67 190.08 674.674 193.898C675.545 197.047 676.75 198.052 682.105 199.726C688.264 201.736 690.138 204.215 693.084 214.464C696.029 224.579 697.368 227.392 700.18 229.804C703.929 232.952 708.749 231.747 710.088 227.325C711.828 221.832 711.761 220.024 709.82 215.937L707.879 211.985L709.552 210.712C710.489 210.043 711.494 209.172 711.761 208.837C712.096 208.502 713.033 207.497 713.837 206.626C715.042 205.286 716.18 204.884 720.062 204.55C726.355 203.947 726.958 203.679 726.958 201.334C726.958 200.195 727.426 199.19 728.23 198.789C730.037 197.784 730.372 196.31 729.501 192.894C728.765 189.946 728.832 189.745 730.506 188.271C731.845 187.133 732.313 186.061 732.313 184.386C732.313 182.577 732.715 181.707 734.054 180.903C736.196 179.496 741.685 178.893 743.627 179.898C745.099 180.702 745.568 183.582 744.363 184.319C743.292 184.989 743.627 187.267 745.033 188.673C746.371 190.013 749.25 190.415 752.262 189.611C754.405 189.008 755.877 185.793 755.61 182.109L755.476 178.96L758.287 178.022C762.237 176.816 763.04 177.285 762.639 180.501C761.769 186.798 765.45 191.152 773.082 193.028C778.17 194.233 780.513 196.176 780.513 199.056C780.513 202.138 779.375 202.272 767.66 201.133C761.635 200.53 753.869 199.994 750.321 199.86C743.961 199.726 743.961 199.726 740.279 202.205C736.598 204.817 732.581 206.023 723.008 207.497C719.928 207.966 717.652 208.703 716.849 209.507C715.644 210.712 715.644 210.846 716.916 214.263C721.133 225.182 725.82 231.479 730.64 232.818C732.715 233.354 734.656 233.287 739.342 232.484C743.56 231.747 746.974 231.546 750.723 231.881C759.158 232.617 759.76 233.019 762.974 240.455C768.262 252.446 766.388 255.46 751.526 259.011C745.099 260.551 741.484 260.685 740.413 259.413C739.878 258.81 737.468 258.408 732.447 258.207C725.552 257.939 724.949 257.738 715.242 253.853C709.753 251.642 704.264 249.565 703.059 249.364C699.444 248.561 696.23 249.967 692.481 253.853C689.737 256.733 688.465 257.604 686.256 258.006C681.436 258.81 673.402 257.135 663.361 253.317C658.273 251.374 655.863 249.164 654.658 245.278C653.185 240.656 650.775 238.244 644.951 235.498C642.006 234.158 636.315 232.216 632.299 231.211C622.324 228.732 618.374 229 609.136 232.885C602.509 235.699 601.839 235.833 596.751 235.632C583.63 235.096 582.961 235.163 578.676 237.441C573.723 240.12 564.216 248.695 562.007 252.513C560.936 254.322 560.2 256.934 559.932 259.681C559.664 262.092 559.196 264.973 558.861 266.112C558.125 268.389 554.376 272.475 548.886 276.83C537.573 285.739 530.142 300.543 525.456 323.855C521.038 345.693 521.171 353.866 526.125 363.981C528.334 368.469 530.008 370.613 535.163 375.704C540.652 381.13 541.79 382.671 544.133 387.829C547.213 394.461 550.895 398.815 558.459 404.576C564.283 408.997 568.233 411.074 570.911 411.074C571.982 411.074 574.928 410.404 577.404 409.6C584.367 407.389 593.203 407.523 599.429 410.002C606.726 412.882 607.462 412.949 609.605 410.404C613.086 406.317 613.755 405.782 616.5 405.045C620.182 404.04 623.328 404.71 637.989 409.801C647.361 413.016 649.972 414.155 650.507 415.361C651.311 417.17 650.641 421.122 648.298 428.624C647.361 431.505 646.625 434.452 646.625 435.055C646.625 437.869 648.298 441.553 652.717 448.319C661.085 461.248 663.963 468.75 666.038 482.617C667.043 489.383 666.708 491.995 663.762 501.306C660.415 511.757 659.344 516.312 658.875 522.14C658.34 529.107 659.813 534.332 664.432 542.437C666.44 545.988 668.382 549.94 668.783 551.146C669.185 552.418 669.72 557.509 669.988 562.467L670.524 571.51L676.616 583.903C683.243 597.3 685.653 604.535 686.657 613.712C687.528 621.617 688.398 622.488 695.025 622.287C714.439 621.617 731.108 616.057 739.075 607.55C743.359 602.927 745.501 599.042 749.049 588.994C753.401 576.936 755.141 573.453 759.492 568.495C764.982 562.132 765.049 561.864 764.915 552.351C764.781 544.514 764.915 543.844 766.589 540.695C768.597 536.877 770.94 534.466 777.166 529.843C782.588 525.824 784.998 522.274 788.546 513.029C792.295 503.316 793.902 496.885 793.902 491.124C793.902 485.095 792.764 481.21 788.211 471.966C782.454 460.243 782.053 454.683 786.27 446.041C790.287 437.802 801.533 424.873 814.922 413.15C824.428 404.777 828.847 399.284 833.064 390.642C837.081 382.269 838.085 378.785 838.085 372.756C838.085 365.857 836.545 365.455 826.972 369.541C819.407 372.756 816.194 373.56 812.847 372.89C806.621 371.752 803.341 368.469 793.634 353.598C779.977 332.765 776.697 326.669 767.593 305.233C763.777 296.189 759.693 286.945 758.488 284.667C757.35 282.39 756.413 280.045 756.413 279.509C756.413 278.236 758.622 276.964 759.894 277.432C760.43 277.633 766.053 286.074 772.413 296.189C778.973 306.572 785.467 316.018 787.341 317.96C791.893 322.649 797.316 335.31 801.6 351.454C803.609 358.756 804.68 360.833 806.621 360.833C807.224 360.833 809.5 360.23 811.709 359.493C814.989 358.354 816.997 358.153 823.625 358.287L831.658 358.488L834.604 354.603C837.549 350.717 838.754 349.78 846.386 345.358C851.139 342.612 859.105 335.243 868.745 324.927C876.377 316.687 877.984 314.276 878.586 310.19C879.456 304.496 875.306 300.945 865.331 298.936C858.704 297.596 858.034 297.194 857.699 294.514C857.231 289.691 854.62 289.222 851.608 293.443C849.666 296.122 845.047 299.204 842.905 299.204C842.436 299.204 840.963 298.132 839.625 296.792C838.219 295.452 835.541 293.175 833.6 291.701C829.114 288.285 825.098 283.059 823.022 277.901C820.679 272.207 820.813 269.662 823.424 267.451C824.562 266.513 826.035 265.71 826.704 265.71C827.842 265.71 832.729 270.466 832.729 271.672C832.729 271.939 834.135 273.614 835.943 275.356C839.825 279.241 846.721 282.658 858.838 286.744C871.758 291.098 877.649 291.969 889.967 291.433C902.083 290.964 902.887 291.165 912.661 297.864C919.556 302.62 921.096 304.429 921.096 307.644C921.096 309.319 921.966 310.324 927.321 314.745C929.798 316.821 930.736 317.223 932.275 316.888C934.217 316.487 934.284 316.553 936.694 322.85C940.509 332.832 941.848 338.459 942.451 346.631L942.986 354.134L946.601 357.684C949.212 360.23 950.551 362.172 951.488 364.852C952.158 366.862 954.032 370.948 955.572 373.895C957.178 376.843 958.852 380.594 959.321 382.269C960.392 386.087 961.061 386.958 963.003 386.958C964.141 386.958 965.346 385.953 967.086 383.609C968.492 381.733 970.835 378.785 972.241 377.044C976.458 372.02 976.927 370.278 976.258 362.507C975.387 351.387 975.454 349.378 977.329 345.894C978.801 343.215 984.626 336.047 1003.17 314.343C1007.19 309.587 1010.87 306.572 1012.54 306.572C1013.01 306.572 1017.09 309.654 1021.58 313.338L1029.68 320.104L1029.21 324.19L1028.81 328.209L1032.76 331.961C1037.71 336.583 1038.38 337.923 1037.85 341.406C1037.51 343.483 1037.65 344.421 1038.58 345.425C1040.93 348.038 1045.61 346.363 1045.61 342.947C1045.61 341.875 1046.35 341.272 1048.62 340.535L1051.64 339.463L1052.98 343.952C1055.85 353.196 1056.46 357.684 1056.93 372.555C1057.46 389.303 1057.8 390.575 1063.35 397.475C1067.37 402.365 1068.1 403.839 1069.44 409.801C1070.45 414.289 1070.85 415.026 1074.33 418.442C1077.88 421.993 1085.18 426.481 1087.32 426.481C1088.92 426.481 1090.06 424.471 1090 421.859C1089.86 419.916 1085.38 406.719 1081.23 396.269C1080.36 394.059 1077.34 391.647 1075.47 391.647C1074.73 391.647 1072.79 391.044 1071.25 390.374C1067.77 388.767 1065.36 384.345 1064.62 378.45C1064.22 374.297 1066.43 358.086 1067.77 356.076C1068.77 354.536 1069.78 356.813 1069.38 359.493C1069.24 360.766 1068.84 363.177 1068.64 364.785C1068.04 368.67 1069.18 369.541 1075.07 369.541C1079.49 369.541 1079.55 369.541 1081.16 372.02C1082.03 373.426 1083.44 374.833 1084.31 375.235C1085.24 375.637 1085.78 376.441 1085.78 377.58C1085.78 379.656 1086.31 380.527 1088.32 381.532C1090.93 382.939 1094.15 380.661 1101.98 371.886C1105.93 367.464 1109.14 363.713 1109.14 363.512C1109.14 363.311 1106.6 360.297 1103.45 356.813C1097.49 350.115 1097.43 349.981 1099.23 345.626C1100.04 343.617 1099.9 343.148 1097.49 338.325C1096.02 335.444 1093.28 330.956 1091.33 328.276C1089.39 325.597 1087.79 323.319 1087.79 323.118C1087.79 322.649 1096.42 314.41 1097.56 313.74C1099.03 312.936 1101.04 314.946 1101.84 318.027C1103.05 322.314 1106.46 321.98 1109.54 317.29C1111.48 314.343 1114.3 312.802 1120.66 311.194C1123.74 310.458 1127.75 308.984 1129.56 308.046C1133.38 305.969 1139.6 299.873 1143.75 294.179C1146.5 290.495 1146.7 289.959 1146.7 285.806C1146.7 283.059 1147.3 279.576 1148.37 276.227C1151.85 265.241 1150.45 261.02 1137.19 244.139C1134.65 240.991 1132.64 237.91 1132.64 237.24C1132.64 236.637 1133.31 234.225 1134.11 231.948C1135.52 227.861 1135.52 227.593 1134.45 225.919C1133.11 223.909 1131.5 223.708 1128.76 225.316C1126.88 226.388 1126.61 226.388 1122.87 224.847C1120.72 223.976 1118.38 222.837 1117.78 222.301C1115.1 220.024 1117.04 214.598 1121.93 210.712C1125.14 208.167 1126.88 207.966 1127.15 210.11C1127.42 212.454 1128.69 215.469 1129.36 215.469C1129.69 215.469 1130.9 214.866 1132.1 214.129C1134.51 212.655 1138.06 212.387 1141.21 213.526C1143.68 214.397 1144.29 215.536 1144.35 219.488C1144.35 221.631 1144.62 222.502 1145.36 222.636C1152.79 223.641 1155.13 225.517 1158.68 233.153C1162.63 241.661 1166.04 243.47 1168.65 238.445C1169.73 236.436 1169.66 231.479 1168.52 228.799C1166.24 223.507 1159.68 216.272 1156 215.134C1154.13 214.531 1154.4 213.392 1157.74 209.172C1159.48 206.894 1160.89 204.282 1161.09 202.875C1161.96 197.583 1164.17 195.64 1167.32 197.315C1169.53 198.454 1171.8 198.186 1173.34 196.511C1175.35 194.434 1178.5 184.788 1180.5 174.874C1182.78 163.821 1182.71 163.017 1179.9 161.342C1178.5 160.538 1176.76 158.462 1175.55 156.385C1172.54 151.026 1171.67 149.954 1168.72 148.481C1166.58 147.342 1165.64 146.203 1163.9 142.586C1161.49 137.628 1159.89 136.423 1155.73 136.423C1153.99 136.423 1152.19 135.82 1150.71 134.882C1149.44 134.011 1147.03 133.073 1145.43 132.805C1139.2 131.867 1138.93 130.997 1142.28 121.953C1146.36 110.9 1145.76 111.57 1154.8 109.962C1161.96 108.69 1169.93 108.69 1176.62 109.962C1186.4 111.838 1188.67 111.302 1187.93 107.216C1186.6 100.182 1188 97.5696 1192.96 97.5696C1195.77 97.5696 1198.04 99.3113 1201.12 103.799C1203.6 107.551 1206.28 105.34 1206.28 99.5792C1206.28 96.3638 1206.55 95.426 1207.68 94.6891C1208.42 94.1532 1209.62 93.8853 1210.36 94.0192C1212.7 94.6891 1213.78 97.2347 1214.11 103.264C1214.51 109.56 1213.78 112.307 1211.3 113.647C1209.29 114.719 1208.02 117.13 1208.62 118.939C1208.82 119.676 1210.16 121.417 1211.57 122.757C1214.58 125.504 1216.92 130.193 1218.66 136.423C1220.27 142.452 1222.54 146.672 1225.36 149.016C1228.03 151.16 1236.67 154.442 1237.54 153.572C1238.88 152.299 1237.61 129.054 1236 125.102C1235.47 123.896 1235.06 121.886 1235.06 120.68C1235.06 118.604 1234.86 118.403 1231.72 117.599C1228.97 116.929 1228.37 116.46 1228.37 115.254C1228.37 114.451 1227.9 112.508 1227.36 110.967C1226.83 109.36 1226.43 108.02 1226.49 107.953C1228.37 106.747 1232.25 106.01 1236.54 106.077L1241.82 106.211L1246.31 102.058C1248.79 99.7132 1252.4 96.6988 1254.34 95.292C1257.16 93.2824 1257.82 92.4115 1257.82 90.8708C1257.82 88.2583 1255.68 86.3826 1251 84.9759C1247.45 83.904 1247.31 83.7031 1248.59 82.8992C1249.52 82.2963 1249.86 81.5595 1249.59 80.4207C1249.32 79.0809 1249.66 78.746 1251.6 78.411C1254.54 77.8751 1261.51 78.612 1264.38 79.8848C1265.66 80.3537 1267.53 81.5595 1268.67 82.4973C1271.21 84.6409 1275.03 84.7749 1277.17 82.7653C1277.97 82.0284 1278.58 80.8896 1278.44 80.2867C1278.11 78.545 1271.15 73.3199 1265.39 70.5064C1256.15 65.8842 1247.05 63.2047 1228.03 59.4534C1212.17 56.3049 1204.4 55.6351 1193.29 56.5729C1175.35 58.1136 1164.71 57.5107 1151.92 54.2953C1147.17 53.0895 1143.62 52.6876 1138.53 52.6876C1130.56 52.6876 1126.08 52.0177 1114.7 49.3382C1102.31 46.3237 1095.69 45.3189 1086.18 44.85L1077.48 44.4481L1078.95 46.9266C1079.75 48.2664 1080.42 49.6731 1080.42 50.0751C1080.42 51.2139 1077.95 50.7449 1072.32 48.5343L1066.83 46.3907L1062.75 47.9314C1051.3 52.2187 1051.37 52.2187 1048.89 51.0799C1047.62 50.544 1045.88 49.4722 1044.94 48.6683C1042.73 46.9266 1018.03 39.8259 1017.16 40.6967C1016.76 41.0987 1016.83 41.7685 1017.36 42.6394C1018.5 44.5151 1018.43 44.649 1016.02 43.9122C1014.82 43.5102 1009.93 43.2423 1005.11 43.2423C997.613 43.3093 995.939 43.1083 992.86 41.8355C989.914 40.5628 988.977 40.4958 986.835 41.0987C977.529 43.7782 971.438 45.3189 970.166 45.3189C968.224 45.3189 965.948 43.1083 965.948 41.1656C965.948 40.3618 967.22 37.7493 968.76 35.4047C971.438 31.3184 971.504 30.9835 970.567 29.3758C968.827 26.2273 965.546 25.5574 956.308 26.4283C945.932 27.5001 942.785 27.4331 939.505 26.1603C934.083 24.0837 931.472 23.4138 930.334 23.8157Z" fill="#EEEEEE"/>
<path d="M822.222 26.8977C819.009 29.1753 815.059 29.9792 807.695 29.9792C796.783 29.9122 792.499 32.2568 788.214 40.7643C785.671 45.8554 785.269 49.2717 786.942 50.9464C788.081 52.1522 788.482 52.2192 794.239 52.3532C796.984 52.4202 799.193 52.9561 801.135 54.0279C803.545 55.3007 804.348 55.4346 805.687 54.8318C808.03 53.7599 807.695 51.8173 804.683 48.8028C802.139 46.2573 802.072 46.0563 802.741 43.7787C803.946 39.8264 806.289 38.0847 812.18 37.0129C815.662 36.3431 819.076 35.0703 822.289 33.3286C827.711 30.3141 829.72 28.4385 829.184 26.8977C828.649 25.558 824.163 25.558 822.222 26.8977Z" fill="#EEEEEE"/>
<path d="M1041.13 30.381C1039.59 30.9169 1040.19 33.0605 1042.33 34.8692C1043.47 35.8071 1046.02 37.0798 1048.09 37.6827C1051.71 38.7545 1052.84 38.7545 1061.21 37.5487C1063.96 37.1468 1064.63 37.2808 1066.03 38.6206C1068.17 40.6302 1070.72 40.5632 1073.06 38.2856C1074.87 36.5439 1075.2 36.4769 1079.55 36.9459C1082.97 37.2808 1084.44 37.1468 1085.38 36.4099C1087.86 34.6013 1086.25 33.3955 1080.63 32.9266C1077.75 32.6586 1072.59 32.0557 1069.11 31.5198C1063.09 30.582 1042.8 29.7781 1041.13 30.381Z" fill="#EEEEEE"/>
<path d="M226.083 38.2185C224.075 38.7544 221.799 40.0942 219.924 41.8359C218.251 43.3766 215.506 45.3193 213.832 46.1231C210.82 47.5969 209.28 50.0754 210.552 51.3482C211.757 52.554 220.393 52.8219 225.213 51.8171C230.568 50.6783 231.104 51.0132 230.702 54.6976C230.367 57.1761 232.108 61.9323 233.849 63.339C235.321 64.6118 240.074 64.3439 244.56 62.8031C249.58 61.0614 252.325 61.0614 257.346 62.8031C261.965 64.4108 265.647 64.2099 271.27 61.9993C276.291 60.0566 276.693 59.4537 276.827 54.0947C276.894 50.9463 277.295 48.8026 278.032 47.6638C279.237 45.8552 279.504 45.7212 282.651 45.0513C283.99 44.7164 284.458 44.2474 284.458 42.9747C284.458 39.0894 276.291 38.8884 271.605 42.7067C268.86 44.8503 263.639 46.659 259.823 46.659C258.216 46.659 257.078 46.1231 255.806 44.7164C254.802 43.6446 253.128 42.5058 251.99 42.2378C250.919 41.9699 249.045 40.7641 247.907 39.5583L245.765 37.2807L237.53 37.3477C232.978 37.3477 227.824 37.7496 226.083 38.2185Z" fill="#EEEEEE"/>
<path d="M534.496 74.392C533.358 75.1959 533.157 75.9997 533.358 80.22C533.425 82.8995 533.826 85.445 534.228 85.9809C535.232 87.1197 554.981 87.2537 557.123 86.0479C561.273 83.9043 561.34 80.4879 557.324 76.3347L554.445 73.2532L551.366 74.0571C549.558 74.593 547.215 74.7269 545.742 74.526C539.717 73.3872 535.835 73.3872 534.496 74.392Z" fill="#EEEEEE"/>
<path d="M594.944 110.632C593.94 111.168 592.334 113.178 591.396 115.121C589.857 118.135 589.79 118.671 590.66 119.542C591.53 120.413 591.53 120.815 590.66 122.556C588.785 126.107 590.258 128.25 595.948 129.992C598.827 130.863 599.028 137.093 596.149 137.093C594.409 137.093 593.472 137.964 592.735 140.308C592.4 141.514 592.601 141.983 593.672 142.251C594.743 142.519 594.944 142.988 594.61 144.595C594.342 146.069 594.476 146.806 595.279 147.275C596.953 148.213 596.685 148.682 593.405 150.423C590.526 151.964 589.187 153.773 590.057 155.179C590.794 156.385 592.936 155.916 596.551 153.773C598.492 152.567 600.568 151.629 601.103 151.696C601.639 151.696 603.714 151.294 605.722 150.691C607.664 150.155 610.877 149.82 612.751 149.954L616.166 150.088L618.107 146.404C620.517 141.782 620.182 140.442 616.634 140.442C613.354 140.442 612.082 139.437 611.145 135.954C610.676 134.145 609.739 132.671 608.467 131.734C606.994 130.729 606.459 129.724 606.459 128.317C606.459 126.308 604.45 123.695 602.911 123.695C602.442 123.695 601.371 123.226 600.568 122.623L599.028 121.551L600.835 119.207L602.576 116.929L601.237 115.456C600.501 114.652 599.63 113.044 599.296 111.972C598.559 109.628 597.421 109.293 594.944 110.632Z" fill="#EEEEEE"/>
<path d="M577.94 131.667C576.601 132.471 575.731 133.676 575.463 134.949C575.195 136.356 574.593 137.026 573.321 137.361C571.513 137.83 571.044 139.571 572.45 140.978C572.986 141.514 572.785 142.385 571.446 144.394C570.442 145.868 569.639 147.409 569.639 147.811C569.639 149.017 572.785 149.218 576.4 148.28C578.408 147.677 580.818 147.074 581.822 146.873C584.299 146.337 585.237 144.26 585.304 139.437C585.371 135.954 585.571 135.351 586.91 134.748C588.718 133.944 588.852 132.002 587.111 131.064C585.036 129.992 580.216 130.26 577.94 131.667Z" fill="#EEEEEE"/>
<path d="M1171.27 137.562C1170.53 138.231 1170.73 140.978 1171.54 141.514C1171.94 141.715 1172.81 143.322 1173.54 145.064C1174.28 146.739 1176.09 149.351 1177.56 150.825C1181.38 154.643 1185.8 161.007 1187.2 164.759C1187.87 166.5 1189.28 169.381 1190.41 171.123C1191.49 172.864 1192.76 175.477 1193.16 176.95C1194.16 180.3 1195.44 180.568 1198.11 178.022C1201.39 175.008 1200.99 173.4 1195.84 168.711C1191.95 165.161 1191.49 164.558 1192.15 163.352C1193.29 161.275 1193.09 159.869 1191.15 156.184C1188.14 150.49 1184.92 146.538 1179.17 141.715C1173.95 137.361 1172.27 136.49 1171.27 137.562Z" fill="#EEEEEE"/>
<path d="M1198.38 183.783C1197.91 183.984 1197.24 184.721 1196.84 185.458C1196.24 186.53 1196.51 187.267 1198.05 189.477C1199.59 191.822 1199.92 192.827 1199.79 195.841C1199.65 198.722 1199.92 199.928 1201.53 202.406C1204.27 206.76 1205.14 210.579 1204.81 216.741C1204.61 220.694 1204.07 222.971 1202.67 225.785C1200.66 229.938 1198.45 231.546 1191.09 234.225C1187.07 235.632 1185.8 236.704 1181.58 241.661C1178.97 244.742 1178.17 246.953 1178.17 250.972C1178.17 253.719 1178.5 254.657 1180.24 256.666C1183.72 260.619 1188.41 262.293 1189.34 259.949C1189.95 258.408 1189.88 255.796 1189.28 252.58C1188.88 250.436 1189.01 249.566 1189.88 248.695C1190.88 247.757 1191.22 247.757 1193.36 248.628C1196.71 250.035 1197.38 249.901 1198.58 247.623C1199.85 245.144 1201.06 245.077 1202.8 247.422L1204.14 249.231L1208.62 245.077C1212.78 241.326 1213.38 240.924 1215.39 241.326C1219.74 242.13 1222.62 239.651 1220.94 236.503C1220.27 235.163 1220.27 234.56 1221.01 233.221C1221.81 231.747 1221.75 231.211 1220.81 229.201C1219.87 227.259 1219.74 225.718 1220.14 220.828L1220.54 214.866L1214.05 208.167C1210.43 204.416 1207.62 201.066 1207.82 200.597C1208.16 199.459 1210.83 199.861 1213.44 201.535C1214.65 202.272 1215.92 202.674 1216.19 202.473C1216.52 202.272 1216.66 200.597 1216.46 198.789C1216.19 195.64 1216.26 195.372 1217.93 194.702C1220.21 193.832 1220.14 193.229 1217.26 190.683C1215.45 189.142 1214.38 188.674 1213.24 188.941C1210.37 189.678 1206.42 188.607 1203.8 186.396C1200.99 183.984 1199.65 183.381 1198.38 183.783Z" fill="#EEEEEE"/>
<path d="M1150.65 297.663C1148.3 301.414 1147.77 303.29 1148.3 305.501C1149.04 308.515 1153.06 308.448 1154.87 305.367C1156.14 303.156 1156.87 298.4 1156.34 296.189C1155.6 293.309 1153.06 293.979 1150.65 297.663Z" fill="#EEEEEE"/>
<path d="M225.548 301.816C219.523 302.687 216.846 304.563 216.846 307.912C216.846 309.922 218.519 309.922 222.871 307.845C227.825 305.501 228.963 305.434 230.636 307.309C232.31 309.185 235.055 310.324 239.406 310.927C241.615 311.195 243.289 311.865 244.226 312.869C245.966 314.745 247.774 319.836 247.238 321.444C246.77 322.918 248.644 325.329 250.251 325.329C251.724 325.329 261.832 321.98 262.903 321.109C265.514 319.032 262.033 314.946 255.539 312.535C252.728 311.53 250.05 309.788 247.171 307.175C242.686 303.156 240.477 302.218 233.247 301.615C231.038 301.481 227.557 301.548 225.548 301.816Z" fill="#EEEEEE"/>
<path d="M1107.74 322.515C1104.32 322.917 1101.71 328.477 1103.18 332.296C1103.85 334.171 1105.59 334.573 1108.07 333.301C1111.62 331.492 1114.9 327.071 1114.16 325.128C1113.7 323.788 1109.88 322.248 1107.74 322.515Z" fill="#EEEEEE"/>
<path d="M269.329 323.788C268.325 327.004 267.588 328.076 266.049 328.679C265.111 329.014 264.375 329.817 264.375 330.42C264.375 331.358 264.911 331.492 268.459 331.09C272.074 330.688 272.743 330.755 274.082 332.028C274.952 332.832 276.827 333.636 278.299 333.837C280.575 334.172 281.178 333.971 281.914 332.765C282.584 331.626 283.454 331.358 285.931 331.358C289.144 331.358 289.144 331.358 289.144 329.081C289.144 324.257 285.797 322.717 275.555 322.65C270.534 322.65 269.664 322.851 269.329 323.788Z" fill="#EEEEEE"/>
<path d="M1156.21 328.142C1151.99 329.281 1150.31 334.975 1152.12 341.741C1153.39 346.296 1160.29 360.23 1164.97 367.531L1169.46 374.498L1169.39 381.063C1169.26 387.226 1169.39 387.829 1171.2 390.776C1173.48 394.461 1177.29 396.872 1182.05 397.609C1188.27 398.547 1192.82 396.336 1192.89 392.317C1192.89 390.642 1192.09 389.169 1187.94 383.475C1186.6 381.599 1184.66 377.245 1183.12 372.757C1181.78 368.603 1179.1 361.636 1177.29 357.282C1174.21 350.048 1173.41 348.775 1168.46 343.55C1164.31 339.062 1162.63 336.65 1161.09 333.033C1160.02 330.42 1159.02 328.142 1158.82 327.942C1158.62 327.741 1157.41 327.808 1156.21 328.142Z" fill="#EEEEEE"/>
<path d="M972.98 379.656C971.373 382.738 971.239 394.059 972.779 396.47C975.122 400.021 979.139 399.217 981.282 394.863C983.491 390.24 983.156 387.963 979.474 382.604C977.667 379.991 975.725 377.848 975.122 377.714C974.453 377.58 973.65 378.317 972.98 379.656Z" fill="#EEEEEE"/>
<path d="M1141.88 392.987C1140.54 394.327 1139.94 395.6 1140.01 396.805C1140.34 401.227 1140.14 401.628 1136.39 403.37C1133.71 404.643 1131.84 406.251 1129.16 409.6C1127.09 412.213 1124.48 414.624 1122.94 415.428C1121.46 416.165 1120.13 417.036 1119.99 417.371C1119.86 417.773 1119.05 418.71 1118.18 419.581C1116.91 420.854 1116.18 421.055 1113.7 420.72C1111.15 420.318 1110.62 420.519 1109.68 421.792C1108.68 423.199 1108.74 423.534 1109.95 425.878C1110.75 427.486 1111.22 429.763 1111.22 432.175C1111.22 436.261 1112.49 439.41 1114.5 440.549C1115.24 440.883 1116.18 442.357 1116.64 443.697C1117.85 447.515 1118.25 447.783 1123.47 448.051C1127.42 448.252 1128.83 448.654 1131.17 450.195C1133.51 451.803 1134.79 452.137 1138.33 452.204C1143.69 452.271 1145.76 450.731 1146.43 445.975C1147.04 441.486 1148.44 438.539 1151.19 435.725C1153.33 433.582 1153.6 432.845 1153.53 430.232C1153.4 427.754 1153.6 427.151 1154.74 426.816C1156.48 426.28 1156.48 424.337 1154.67 422.73C1152.53 420.787 1151.52 418.376 1150.99 413.82C1150.58 410.203 1150.72 409.466 1151.86 408.193C1153.8 406.117 1155.4 402.7 1155.4 400.825C1155.4 399.954 1154.47 398.413 1153.26 397.207C1150.58 394.729 1145.36 390.977 1144.56 390.977C1144.22 390.977 1143.02 391.848 1141.88 392.987Z" fill="#EEEEEE"/>
<path d="M1047.96 398.614C1046.15 400.423 1045.75 403.437 1047.09 405.916C1047.49 406.719 1049.1 408.863 1050.64 410.739C1052.24 412.547 1054.32 415.763 1055.32 417.773C1056.39 419.983 1059 423.266 1061.68 425.811C1065.56 429.562 1066.3 430.634 1067.04 433.85C1068.44 439.745 1069.45 441.62 1074.07 446.443C1077.48 450.061 1078.89 452.338 1080.83 456.894C1083.57 463.391 1084.51 464.262 1090.27 465.803C1092.34 466.339 1094.89 467.344 1095.82 468.014C1102.05 472.368 1108.01 474.176 1122.6 476.052C1128.29 476.789 1136.46 478.263 1140.68 479.402C1150.65 481.947 1154.47 481.947 1162.83 479.335L1169.39 477.258L1174.21 478.33C1180.04 479.602 1183.52 479.669 1185.13 478.531C1186.26 477.66 1186.2 477.526 1183.65 476.521C1182.18 475.918 1178.97 475.114 1176.49 474.645C1172.61 473.975 1171.07 474.042 1165.85 475.114C1158.88 476.521 1156.01 476.454 1151.92 474.98C1150.32 474.377 1145.76 473.641 1141.81 473.373C1134.78 472.837 1134.25 472.703 1127.42 469.219L1120.26 465.669H1111.55C1103.66 465.669 1102.65 465.535 1100.38 464.128C1098.9 463.19 1097.36 461.382 1096.43 459.573C1095.02 456.626 1095.02 456.224 1095.89 451.668C1096.36 449.056 1096.76 446.51 1096.69 446.041C1096.69 445.64 1096.63 444.769 1096.56 444.166C1096.56 443.563 1094.35 440.95 1091.74 438.271C1089.2 435.658 1085.65 431.438 1083.91 428.893C1081.3 425.074 1079.96 423.801 1075.87 421.524C1069.11 417.706 1065.1 413.954 1062.35 409.064C1058.67 402.432 1054.92 398.547 1051.17 397.408C1050.03 397.073 1049.23 397.341 1047.96 398.614Z" fill="#EEEEEE"/>
<path d="M1217.12 435.323C1213.98 436.864 1214.24 441.687 1217.59 443.362C1220.54 444.836 1221.01 445.573 1221.01 449.458C1221.01 454.147 1221.74 455.085 1226.16 456.023C1231.05 457.027 1232.85 457.965 1235.4 460.578C1236.74 461.985 1238.81 463.123 1241.89 463.994C1248.59 466.004 1249.59 467.545 1248.92 474.712C1248.72 476.789 1248.79 478.866 1249.06 479.334C1249.32 479.736 1251 480.205 1252.87 480.406C1254.68 480.674 1258.69 481.411 1261.84 482.215L1267.53 483.555L1271.75 481.545C1276.9 479.067 1278.64 479.401 1283.06 483.421C1286.81 486.904 1290.69 488.646 1295.92 489.182C1299.46 489.584 1300 489.517 1300 488.512C1300 486.502 1298.06 483.555 1295.51 481.679C1288.42 476.521 1284.6 471.229 1285.94 468.616C1286.34 467.88 1286.61 466.741 1286.48 466.004C1286.21 464.329 1272.28 448.788 1269.61 447.18C1268.13 446.242 1266.26 445.907 1263.05 445.907C1257.96 445.907 1255.55 445.171 1253.14 442.893C1252.2 442.089 1250.8 441.151 1249.99 440.95C1247.85 440.28 1243.3 441.687 1239.08 444.3C1237.01 445.573 1234.73 446.577 1233.93 446.577C1231.98 446.577 1228.57 443.63 1227.1 440.615C1224.62 435.859 1220.54 433.649 1217.12 435.323Z" fill="#EEEEEE"/>
<path d="M1187.6 477.258C1186.66 478.598 1185.12 479.536 1182.38 480.339C1175.28 482.483 1174.88 482.751 1174.08 485.431C1172.14 491.861 1176.69 491.593 1187.27 484.627C1192.02 481.478 1192.76 480.272 1191.42 477.593C1190.21 475.114 1189.21 474.98 1187.6 477.258Z" fill="#EEEEEE"/>
<path d="M1259.5 493.201C1257.69 495.077 1256.42 498.962 1255.08 507.201C1253.21 518.455 1249.73 525.623 1246.11 525.623C1244.37 525.623 1237.94 521.202 1233.53 516.982C1228.5 512.158 1228.3 509.546 1232.45 503.048C1233.99 500.637 1233.73 498.56 1231.79 497.488C1230.18 496.684 1217.59 495.478 1210.5 495.478C1203.53 495.478 1203.13 495.88 1200.32 504.388C1199.12 507.938 1197.71 511.154 1197.24 511.556C1196.44 512.225 1195.57 511.957 1192.82 510.149C1190.41 508.608 1188.34 507.871 1185.93 507.67C1181.58 507.335 1180.44 508.206 1173.48 517.25C1157.75 537.681 1153.13 542.437 1146.36 544.983C1144.49 545.719 1140.14 546.791 1136.66 547.327C1128.83 548.734 1125.61 550.141 1122.47 553.624C1118.05 558.514 1117.71 560.658 1115.97 597.3C1115.5 607.281 1114.97 611.368 1113.96 614.717C1112.16 620.478 1112.16 623.091 1114.03 624.363C1116.71 626.239 1120.72 625.703 1124.67 623.024C1130.97 618.736 1131.9 618.535 1142.08 619.071C1152.79 619.607 1153.59 619.406 1160.29 613.846C1168.52 607.081 1175.95 604.736 1189.28 604.669C1197.44 604.669 1197.91 605.004 1198.45 611.502C1199.18 619.406 1201.66 622.287 1206.48 620.679C1208.82 619.875 1209.23 619.942 1210.03 621.014C1210.5 621.684 1211.1 623.962 1211.3 626.038C1212.1 634.077 1212.37 635.282 1213.71 637.359C1215.65 640.575 1218.46 641.512 1226.56 641.512C1232.59 641.512 1234.13 641.78 1237.34 643.187C1241.89 645.197 1244.3 645.264 1247.65 643.589C1250.8 641.914 1253.48 639.101 1257.69 632.737C1261.64 626.775 1263.78 624.765 1272.55 619.071C1280.45 613.846 1284.8 609.291 1289.69 600.918C1296.99 588.525 1296.99 588.525 1296.99 575.529C1296.99 562.199 1296.85 561.73 1289.69 552.15C1275.83 533.729 1269.27 520.599 1265.93 504.455C1263.78 493.871 1261.98 490.789 1259.5 493.201Z" fill="#EEEEEE"/>
<path d="M831.794 499.833C831.593 500.436 831.392 501.642 831.392 502.579C831.392 503.718 830.656 504.656 828.715 505.862C827.309 506.733 824.899 509.144 823.426 511.154C820.012 515.709 818.138 517.25 813.786 518.657C808.297 520.398 806.623 521.47 805.485 523.949C804.548 525.958 804.481 526.896 805.15 530.513C806.422 537.413 806.222 539.825 804.012 542.772C803.008 544.179 801.468 545.988 800.598 546.725C798.188 548.935 795.912 554.026 795.912 557.443C795.912 560.993 796.582 562.467 799.661 566.017C801.201 567.692 801.937 569.166 802.004 570.706C802.071 576.467 804.548 579.013 808.899 577.74C815.861 575.864 819.61 569.634 820.748 558.112C821.686 547.93 822.154 546.725 826.773 540.294C834.472 529.643 837.685 520.8 837.618 510.551C837.618 503.048 836.346 499.23 833.936 498.962C832.865 498.828 832.062 499.163 831.794 499.833Z" fill="#EEEEEE"/>
<path d="M1229.38 654.173L1222.68 654.575L1221.54 656.92C1219.67 660.537 1220 663.753 1222.35 666.298C1223.62 667.705 1224.76 668.308 1225.43 668.04C1226.03 667.839 1228.04 667.638 1229.98 667.638C1235.47 667.638 1236.07 666.834 1236.07 659.666C1236.07 656.317 1236.07 653.637 1236.07 653.704C1236.07 653.771 1233.06 653.972 1229.38 654.173Z" fill="#EEEEEE"/>
<rect x="763.75" y="96.6606" width="97.5001" height="36.1348" rx="8.75843" fill="white"/>
<circle cx="781.62" cy="114.728" r="4.37922" fill="#5D91F4"/>
<path d="M795.81 120.228V109.418H800.081C800.187 109.418 800.312 109.423 800.457 109.433C800.602 109.438 800.742 109.453 800.877 109.478C801.463 109.568 801.953 109.768 802.349 110.078C802.749 110.389 803.049 110.781 803.249 111.257C803.45 111.727 803.55 112.25 803.55 112.826C803.55 113.396 803.447 113.919 803.242 114.395C803.042 114.865 802.741 115.258 802.341 115.574C801.946 115.884 801.458 116.084 800.877 116.174C800.742 116.194 800.602 116.209 800.457 116.219C800.312 116.229 800.187 116.234 800.081 116.234H797.146V120.228H795.81ZM797.146 114.965H800.036C800.131 114.965 800.239 114.96 800.359 114.95C800.484 114.94 800.602 114.923 800.712 114.898C801.057 114.818 801.338 114.673 801.553 114.462C801.773 114.247 801.933 113.997 802.033 113.712C802.133 113.421 802.183 113.126 802.183 112.826C802.183 112.526 802.133 112.233 802.033 111.948C801.933 111.657 801.773 111.405 801.553 111.189C801.338 110.974 801.057 110.829 800.712 110.754C800.602 110.724 800.484 110.706 800.359 110.701C800.239 110.691 800.131 110.686 800.036 110.686H797.146V114.965ZM808.501 120.453C807.695 120.453 806.999 120.271 806.414 119.905C805.833 119.54 805.385 119.034 805.07 118.389C804.754 117.743 804.597 117.002 804.597 116.167C804.597 115.316 804.757 114.57 805.077 113.929C805.398 113.289 805.85 112.791 806.436 112.436C807.022 112.075 807.71 111.895 808.501 111.895C809.311 111.895 810.009 112.078 810.595 112.443C811.181 112.803 811.629 113.306 811.939 113.952C812.254 114.593 812.412 115.331 812.412 116.167C812.412 117.012 812.254 117.758 811.939 118.404C811.624 119.044 811.173 119.547 810.588 119.913C810.002 120.273 809.306 120.453 808.501 120.453ZM808.501 119.185C809.341 119.185 809.967 118.904 810.377 118.344C810.788 117.783 810.993 117.057 810.993 116.167C810.993 115.251 810.785 114.523 810.37 113.982C809.954 113.436 809.331 113.164 808.501 113.164C807.935 113.164 807.47 113.291 807.104 113.547C806.739 113.802 806.466 114.155 806.286 114.605C806.106 115.056 806.016 115.576 806.016 116.167C806.016 117.077 806.226 117.808 806.646 118.359C807.067 118.909 807.685 119.185 808.501 119.185ZM817.48 120.453C816.66 120.453 815.962 120.271 815.386 119.905C814.815 119.535 814.38 119.027 814.08 118.381C813.779 117.736 813.624 117 813.614 116.174C813.624 115.328 813.782 114.585 814.087 113.944C814.397 113.299 814.84 112.796 815.416 112.436C815.992 112.075 816.685 111.895 817.495 111.895C818.351 111.895 819.087 112.105 819.703 112.526C820.323 112.946 820.739 113.522 820.949 114.252L819.628 114.65C819.457 114.18 819.18 113.814 818.794 113.554C818.414 113.294 817.976 113.164 817.48 113.164C816.925 113.164 816.467 113.294 816.107 113.554C815.746 113.809 815.479 114.165 815.303 114.62C815.128 115.071 815.038 115.589 815.033 116.174C815.043 117.075 815.251 117.803 815.656 118.359C816.067 118.909 816.675 119.185 817.48 119.185C818.011 119.185 818.451 119.064 818.802 118.824C819.152 118.579 819.417 118.226 819.598 117.766L820.949 118.118C820.669 118.874 820.231 119.452 819.635 119.853C819.039 120.253 818.321 120.453 817.48 120.453ZM825.677 120.453C824.856 120.453 824.158 120.271 823.582 119.905C823.012 119.535 822.576 119.027 822.276 118.381C821.976 117.736 821.821 117 821.811 116.174C821.821 115.328 821.978 114.585 822.284 113.944C822.594 113.299 823.037 112.796 823.612 112.436C824.188 112.075 824.881 111.895 825.692 111.895C826.548 111.895 827.283 112.105 827.899 112.526C828.52 112.946 828.935 113.522 829.145 114.252L827.824 114.65C827.654 114.18 827.376 113.814 826.991 113.554C826.61 113.294 826.172 113.164 825.677 113.164C825.121 113.164 824.663 113.294 824.303 113.554C823.943 113.809 823.675 114.165 823.5 114.62C823.325 115.071 823.234 115.589 823.229 116.174C823.239 117.075 823.447 117.803 823.853 118.359C824.263 118.909 824.871 119.185 825.677 119.185C826.207 119.185 826.648 119.064 826.998 118.824C827.348 118.579 827.614 118.226 827.794 117.766L829.145 118.118C828.865 118.874 828.427 119.452 827.831 119.853C827.236 120.253 826.518 120.453 825.677 120.453ZM837.314 112.12V120.228H836.022V114.252L831.773 120.228H830.67V112.12H831.961V118.013L836.218 112.12H837.314ZM844.424 120.228V117.293H842.674C842.469 117.293 842.241 117.285 841.991 117.27C841.746 117.25 841.516 117.223 841.301 117.188C840.715 117.077 840.22 116.82 839.814 116.414C839.414 116.009 839.214 115.448 839.214 114.733C839.214 114.037 839.401 113.479 839.777 113.059C840.157 112.633 840.625 112.358 841.18 112.233C841.431 112.173 841.683 112.14 841.939 112.135C842.199 112.125 842.419 112.12 842.599 112.12H845.76L845.767 120.228H844.424ZM838.966 120.228L841.12 116.925H842.562L840.407 120.228H838.966ZM842.577 116.189H844.424V113.224H842.577C842.462 113.224 842.309 113.229 842.119 113.239C841.934 113.249 841.756 113.279 841.586 113.329C841.426 113.374 841.268 113.457 841.113 113.577C840.963 113.697 840.838 113.852 840.737 114.042C840.637 114.232 840.587 114.457 840.587 114.718C840.587 115.093 840.692 115.398 840.903 115.634C841.113 115.864 841.368 116.019 841.668 116.099C841.834 116.139 841.996 116.164 842.156 116.174C842.322 116.184 842.462 116.189 842.577 116.189Z" fill="#2C2C2C"/>
<rect x="604.859" y="140.022" width="112.847" height="36.1348" rx="8.75843" fill="white"/>
<circle cx="621.405" cy="158.09" r="4.37922" fill="#5D91F4"/>
<path d="M635.592 163.59V152.779H642.424V154.048H636.928V163.59H635.592ZM646.085 163.815C645.289 163.815 644.593 163.64 643.998 163.29C643.407 162.934 642.947 162.441 642.616 161.811C642.286 161.175 642.121 160.434 642.121 159.588C642.121 158.703 642.284 157.937 642.609 157.291C642.934 156.641 643.387 156.14 643.968 155.79C644.553 155.434 645.239 155.257 646.025 155.257C646.841 155.257 647.534 155.445 648.104 155.82C648.68 156.195 649.11 156.731 649.395 157.426C649.686 158.122 649.811 158.95 649.771 159.911H648.42V159.431C648.405 158.435 648.202 157.692 647.811 157.201C647.421 156.706 646.841 156.458 646.07 156.458C645.244 156.458 644.616 156.723 644.185 157.254C643.755 157.784 643.54 158.545 643.54 159.536C643.54 160.492 643.755 161.233 644.185 161.758C644.616 162.284 645.229 162.546 646.025 162.546C646.56 162.546 647.026 162.424 647.421 162.178C647.816 161.933 648.127 161.58 648.352 161.12L649.636 161.563C649.32 162.279 648.845 162.834 648.209 163.229C647.579 163.62 646.871 163.815 646.085 163.815ZM643.089 159.911V158.838H649.08V159.911H643.089ZM655.166 163.815C654.405 163.815 653.764 163.627 653.244 163.252C652.723 162.872 652.328 162.359 652.058 161.713C651.793 161.062 651.66 160.334 651.66 159.528C651.66 158.713 651.793 157.982 652.058 157.336C652.328 156.691 652.723 156.183 653.244 155.812C653.769 155.442 654.413 155.257 655.173 155.257C655.924 155.257 656.57 155.445 657.11 155.82C657.656 156.19 658.074 156.698 658.364 157.344C658.654 157.989 658.799 158.718 658.799 159.528C658.799 160.339 658.654 161.067 658.364 161.713C658.074 162.359 657.656 162.872 657.11 163.252C656.57 163.627 655.922 163.815 655.166 163.815ZM651.435 167.193V155.482H652.628V161.45H652.779V167.193H651.435ZM655.001 162.591C655.536 162.591 655.979 162.456 656.329 162.186C656.68 161.916 656.943 161.55 657.118 161.09C657.293 160.624 657.38 160.104 657.38 159.528C657.38 158.958 657.293 158.442 657.118 157.982C656.948 157.522 656.682 157.156 656.322 156.886C655.967 156.616 655.514 156.481 654.963 156.481C654.438 156.481 654.002 156.611 653.657 156.871C653.312 157.126 653.054 157.484 652.884 157.944C652.713 158.4 652.628 158.928 652.628 159.528C652.628 160.119 652.711 160.647 652.876 161.112C653.046 161.573 653.307 161.936 653.657 162.201C654.007 162.461 654.455 162.591 655.001 162.591ZM660.438 163.59V155.482H661.586L664.664 161.773L667.742 155.482H668.891V163.59H667.599V158.267L665.017 163.59H664.311L661.729 158.267V163.59H660.438ZM673.292 163.815C672.687 163.815 672.179 163.705 671.768 163.485C671.363 163.26 671.055 162.964 670.845 162.599C670.64 162.234 670.537 161.833 670.537 161.398C670.537 160.972 670.617 160.604 670.777 160.294C670.942 159.979 671.173 159.719 671.468 159.513C671.763 159.303 672.116 159.138 672.526 159.018C672.912 158.913 673.342 158.823 673.818 158.748C674.298 158.668 674.784 158.595 675.274 158.53C675.765 158.465 676.222 158.402 676.648 158.342L676.167 158.62C676.182 157.899 676.037 157.366 675.732 157.021C675.432 156.676 674.911 156.503 674.17 156.503C673.68 156.503 673.25 156.616 672.879 156.841C672.514 157.061 672.256 157.421 672.106 157.922L670.837 157.539C671.032 156.828 671.41 156.27 671.971 155.865C672.531 155.46 673.27 155.257 674.186 155.257C674.921 155.257 675.552 155.389 676.077 155.655C676.608 155.915 676.988 156.31 677.218 156.841C677.334 157.091 677.406 157.364 677.436 157.659C677.466 157.949 677.481 158.255 677.481 158.575V163.59H676.295V161.645L676.573 161.826C676.268 162.481 675.84 162.977 675.289 163.312C674.744 163.647 674.078 163.815 673.292 163.815ZM673.495 162.696C673.975 162.696 674.391 162.611 674.741 162.441C675.096 162.266 675.382 162.038 675.597 161.758C675.812 161.473 675.952 161.163 676.017 160.827C676.092 160.577 676.132 160.299 676.137 159.994C676.147 159.684 676.152 159.446 676.152 159.281L676.618 159.483C676.182 159.543 675.755 159.601 675.334 159.656C674.914 159.711 674.516 159.771 674.14 159.836C673.765 159.896 673.427 159.969 673.127 160.054C672.907 160.124 672.699 160.214 672.504 160.324C672.314 160.434 672.159 160.577 672.038 160.752C671.923 160.922 671.866 161.135 671.866 161.39C671.866 161.61 671.921 161.821 672.031 162.021C672.146 162.221 672.321 162.384 672.556 162.509C672.797 162.634 673.109 162.696 673.495 162.696ZM679.426 163.59V155.482H680.762V158.898H685.026V155.482H686.362V163.59H685.026V160.167H680.762V163.59H679.426ZM695.102 155.482V163.59H693.81V157.614L689.561 163.59H688.458V155.482H689.749V161.375L694.006 155.482H695.102ZM702.211 163.59V160.655H700.462C700.257 160.655 700.029 160.647 699.779 160.632C699.534 160.612 699.304 160.584 699.088 160.549C698.503 160.439 698.007 160.182 697.602 159.776C697.202 159.371 697.001 158.81 697.001 158.095C697.001 157.399 697.189 156.841 697.564 156.42C697.945 155.995 698.413 155.72 698.968 155.595C699.219 155.535 699.471 155.502 699.726 155.497C699.987 155.487 700.207 155.482 700.387 155.482H703.548L703.555 163.59H702.211ZM696.754 163.59L698.908 160.287H700.35L698.195 163.59H696.754ZM700.365 159.551H702.211V156.586H700.365C700.249 156.586 700.097 156.591 699.907 156.601C699.721 156.611 699.544 156.641 699.374 156.691C699.213 156.736 699.056 156.818 698.901 156.938C698.751 157.059 698.625 157.214 698.525 157.404C698.425 157.594 698.375 157.819 698.375 158.08C698.375 158.455 698.48 158.76 698.69 158.995C698.901 159.226 699.156 159.381 699.456 159.461C699.621 159.501 699.784 159.526 699.944 159.536C700.109 159.546 700.249 159.551 700.365 159.551Z" fill="#2C2C2C"/>
<rect x="773.682" y="176.157" width="94.7918" height="36.1348" rx="8.75843" fill="white"/>
<circle cx="792.199" cy="194.225" r="4.37922" fill="#5D91F4"/>
<path d="M806.387 199.725V188.914H813.219V190.183H807.723V199.725H806.387ZM817.398 199.95C816.637 199.95 815.996 199.762 815.476 199.387C814.955 199.007 814.56 198.494 814.29 197.848C814.025 197.197 813.892 196.469 813.892 195.663C813.892 194.848 814.025 194.117 814.29 193.471C814.56 192.826 814.955 192.318 815.476 191.947C816.001 191.577 816.645 191.392 817.405 191.392C818.156 191.392 818.802 191.579 819.342 191.955C819.888 192.325 820.306 192.833 820.596 193.479C820.886 194.124 821.031 194.853 821.031 195.663C821.031 196.474 820.886 197.202 820.596 197.848C820.306 198.494 819.888 199.007 819.342 199.387C818.802 199.762 818.154 199.95 817.398 199.95ZM813.667 203.328V191.617H814.86V197.585H815.011V203.328H813.667ZM817.233 198.726C817.768 198.726 818.211 198.591 818.561 198.321C818.912 198.051 819.175 197.685 819.35 197.225C819.525 196.759 819.612 196.239 819.612 195.663C819.612 195.093 819.525 194.577 819.35 194.117C819.18 193.656 818.914 193.291 818.554 193.021C818.199 192.751 817.746 192.615 817.195 192.615C816.67 192.615 816.234 192.746 815.889 193.006C815.544 193.261 815.286 193.619 815.116 194.079C814.945 194.535 814.86 195.063 814.86 195.663C814.86 196.254 814.943 196.782 815.108 197.247C815.278 197.708 815.539 198.071 815.889 198.336C816.239 198.596 816.687 198.726 817.233 198.726ZM823.51 203.328L825.079 199.064L825.101 200.325L821.558 191.617H822.962L825.74 198.621H825.259L827.864 191.617H829.223L824.809 203.328H823.51ZM833.368 199.95C832.567 199.95 831.859 199.777 831.244 199.432C830.628 199.082 830.143 198.601 829.787 197.991L830.853 197.3C831.149 197.745 831.501 198.088 831.912 198.328C832.322 198.564 832.79 198.681 833.316 198.681C833.866 198.681 834.304 198.556 834.629 198.306C834.955 198.051 835.117 197.708 835.117 197.277C835.117 196.957 835.037 196.712 834.877 196.542C834.717 196.372 834.487 196.254 834.186 196.189C833.886 196.124 833.528 196.091 833.113 196.091H832.272V194.988H833.105C833.631 194.988 834.059 194.903 834.389 194.732C834.719 194.562 834.885 194.272 834.885 193.862C834.885 193.441 834.729 193.136 834.419 192.946C834.114 192.751 833.749 192.653 833.323 192.653C832.873 192.653 832.442 192.748 832.032 192.938C831.621 193.123 831.269 193.359 830.973 193.644L830.163 192.736C830.583 192.305 831.066 191.975 831.611 191.745C832.162 191.509 832.76 191.392 833.406 191.392C833.926 191.392 834.402 191.484 834.832 191.669C835.267 191.85 835.613 192.117 835.868 192.473C836.128 192.823 836.258 193.251 836.258 193.756C836.258 194.187 836.158 194.57 835.958 194.905C835.758 195.24 835.463 195.533 835.072 195.783L835.02 195.31C835.35 195.391 835.623 195.538 835.838 195.753C836.058 195.964 836.221 196.214 836.326 196.504C836.431 196.794 836.484 197.097 836.484 197.413C836.484 197.943 836.344 198.398 836.063 198.779C835.788 199.154 835.415 199.444 834.945 199.65C834.474 199.85 833.949 199.95 833.368 199.95ZM844.768 191.617V199.725H843.477V193.749L839.227 199.725H838.124V191.617H839.415V197.51L843.672 191.617H844.768ZM851.878 199.725V196.789H850.128C849.923 196.789 849.695 196.782 849.445 196.767C849.2 196.747 848.97 196.719 848.755 196.684C848.169 196.574 847.674 196.316 847.268 195.911C846.868 195.506 846.668 194.945 846.668 194.229C846.668 193.534 846.855 192.976 847.231 192.555C847.611 192.13 848.079 191.855 848.634 191.73C848.885 191.669 849.137 191.637 849.393 191.632C849.653 191.622 849.873 191.617 850.053 191.617H853.214L853.221 199.725H851.878ZM846.42 199.725L848.574 196.422H850.016L847.861 199.725H846.42ZM850.031 195.686H851.878V192.72H850.031C849.916 192.72 849.763 192.725 849.573 192.736C849.388 192.746 849.21 192.776 849.04 192.826C848.88 192.871 848.722 192.953 848.567 193.073C848.417 193.193 848.292 193.349 848.192 193.539C848.091 193.729 848.041 193.954 848.041 194.214C848.041 194.59 848.146 194.895 848.357 195.13C848.567 195.361 848.822 195.516 849.122 195.596C849.288 195.636 849.45 195.661 849.61 195.671C849.776 195.681 849.916 195.686 850.031 195.686Z" fill="#2C2C2C"/>
<rect x="153.473" y="209.582" width="83.0556" height="36.1348" rx="8.75843" fill="white"/>
<circle cx="173.121" cy="227.649" r="4.37922" fill="#5D91F4"/>
<path d="M191.755 233.375C190.679 233.375 189.766 233.137 189.015 232.661C188.264 232.186 187.691 231.525 187.296 230.679C186.905 229.834 186.71 228.855 186.71 227.744C186.71 226.633 186.905 225.655 187.296 224.809C187.691 223.963 188.264 223.302 189.015 222.827C189.766 222.351 190.679 222.114 191.755 222.114C193.006 222.114 194.035 222.431 194.841 223.067C195.651 223.703 196.209 224.559 196.515 225.635L195.156 225.995C194.936 225.189 194.543 224.554 193.977 224.088C193.412 223.623 192.671 223.39 191.755 223.39C190.949 223.39 190.279 223.573 189.743 223.938C189.208 224.303 188.805 224.814 188.534 225.469C188.264 226.12 188.127 226.878 188.122 227.744C188.117 228.605 188.249 229.363 188.519 230.019C188.79 230.669 189.195 231.18 189.736 231.55C190.276 231.916 190.949 232.098 191.755 232.098C192.671 232.098 193.412 231.866 193.977 231.4C194.543 230.93 194.936 230.294 195.156 229.493L196.515 229.854C196.209 230.925 195.651 231.78 194.841 232.421C194.035 233.057 193.006 233.375 191.755 233.375ZM198.161 233.149V222.339H199.497V231.881H203.349V222.339H204.685V231.881H208.536V222.339H209.872V233.149H198.161ZM211.222 233.149L214.841 222.339H216.703L220.321 233.149H218.932L215.547 223.12H215.967L212.611 233.149H211.222ZM212.964 230.619V229.366H218.58V230.619H212.964Z" fill="#2C2C2C"/>
<rect x="305.139" y="604.355" width="119.167" height="36.1348" rx="8.75843" fill="white"/>
<circle cx="321.342" cy="622.423" r="4.37922" fill="#5D91F4"/>
<path d="M334.781 627.922L338.399 617.112H340.261L343.88 627.922H342.491L339.105 617.893H339.525L336.17 627.922H334.781ZM336.522 625.393V624.139H342.138V625.393H336.522ZM348.947 628.148C348.186 628.148 347.546 627.96 347.025 627.585C346.505 627.204 346.109 626.691 345.839 626.046C345.574 625.395 345.441 624.667 345.441 623.861C345.441 623.045 345.574 622.315 345.839 621.669C346.109 621.023 346.505 620.515 347.025 620.145C347.551 619.775 348.194 619.589 348.955 619.589C349.705 619.589 350.351 619.777 350.891 620.153C351.437 620.523 351.855 621.031 352.145 621.676C352.435 622.322 352.581 623.05 352.581 623.861C352.581 624.672 352.435 625.4 352.145 626.046C351.855 626.691 351.437 627.204 350.891 627.585C350.351 627.96 349.703 628.148 348.947 628.148ZM345.216 631.526V619.815H346.41V625.783H346.56V631.526H345.216ZM348.782 626.924C349.317 626.924 349.76 626.789 350.111 626.519C350.461 626.248 350.724 625.883 350.899 625.423C351.074 624.957 351.162 624.437 351.162 623.861C351.162 623.291 351.074 622.775 350.899 622.315C350.729 621.854 350.463 621.489 350.103 621.219C349.748 620.948 349.295 620.813 348.744 620.813C348.219 620.813 347.783 620.943 347.438 621.204C347.093 621.459 346.835 621.817 346.665 622.277C346.495 622.732 346.41 623.26 346.41 623.861C346.41 624.452 346.492 624.98 346.657 625.445C346.827 625.906 347.088 626.268 347.438 626.534C347.788 626.794 348.236 626.924 348.782 626.924ZM354.226 627.922V619.815H359.857V621.083H355.563V627.922H354.226ZM364.792 628.148C363.997 628.148 363.301 627.973 362.705 627.622C362.115 627.267 361.654 626.774 361.324 626.143C360.994 625.508 360.828 624.767 360.828 623.921C360.828 623.035 360.991 622.27 361.316 621.624C361.642 620.973 362.095 620.473 362.675 620.122C363.261 619.767 363.946 619.589 364.732 619.589C365.548 619.589 366.241 619.777 366.812 620.153C367.387 620.528 367.818 621.063 368.103 621.759C368.393 622.455 368.518 623.283 368.478 624.244H367.127V623.763C367.112 622.768 366.909 622.024 366.519 621.534C366.129 621.038 365.548 620.791 364.777 620.791C363.951 620.791 363.323 621.056 362.893 621.586C362.463 622.117 362.247 622.878 362.247 623.869C362.247 624.825 362.463 625.565 362.893 626.091C363.323 626.616 363.936 626.879 364.732 626.879C365.268 626.879 365.733 626.756 366.129 626.511C366.524 626.266 366.834 625.913 367.059 625.453L368.343 625.896C368.028 626.611 367.552 627.167 366.917 627.562C366.286 627.953 365.578 628.148 364.792 628.148ZM361.797 624.244V623.17H367.788V624.244H361.797ZM370.142 627.922V619.815H371.479V623.23H375.743V619.815H377.079V627.922H375.743V624.499H371.479V627.922H370.142ZM381.329 627.922V621.031H378.506V619.815H385.488V621.031H382.665V627.922H381.329ZM393.545 619.815V627.922H392.254V621.947L388.005 627.922H386.902V619.815H388.193V625.708L392.449 619.815H393.545ZM395.64 627.922V619.815H396.977V623.23H401.241V619.815H402.577V627.922H401.241V624.499H396.977V627.922H395.64ZM406.985 628.148C406.379 628.148 405.871 628.038 405.461 627.817C405.055 627.592 404.748 627.297 404.537 626.932C404.332 626.566 404.23 626.166 404.23 625.73C404.23 625.305 404.31 624.937 404.47 624.627C404.635 624.312 404.865 624.051 405.161 623.846C405.456 623.636 405.809 623.471 406.219 623.351C406.604 623.245 407.035 623.155 407.51 623.08C407.991 623 408.476 622.928 408.967 622.863C409.457 622.798 409.915 622.735 410.341 622.675L409.86 622.953C409.875 622.232 409.73 621.699 409.425 621.354C409.124 621.008 408.604 620.836 407.863 620.836C407.373 620.836 406.942 620.948 406.572 621.173C406.207 621.394 405.949 621.754 405.799 622.255L404.53 621.872C404.725 621.161 405.103 620.603 405.664 620.198C406.224 619.792 406.962 619.589 407.878 619.589C408.614 619.589 409.244 619.722 409.77 619.987C410.3 620.248 410.681 620.643 410.911 621.173C411.026 621.424 411.099 621.696 411.129 621.992C411.159 622.282 411.174 622.587 411.174 622.908V627.922H409.988V625.978L410.265 626.158C409.96 626.814 409.532 627.309 408.982 627.645C408.436 627.98 407.771 628.148 406.985 628.148ZM407.187 627.029C407.668 627.029 408.083 626.944 408.434 626.774C408.789 626.599 409.074 626.371 409.29 626.091C409.505 625.805 409.645 625.495 409.71 625.16C409.785 624.91 409.825 624.632 409.83 624.327C409.84 624.016 409.845 623.778 409.845 623.613L410.31 623.816C409.875 623.876 409.447 623.934 409.027 623.989C408.606 624.044 408.208 624.104 407.833 624.169C407.458 624.229 407.12 624.301 406.82 624.387C406.599 624.457 406.392 624.547 406.197 624.657C406.006 624.767 405.851 624.91 405.731 625.085C405.616 625.255 405.558 625.468 405.558 625.723C405.558 625.943 405.613 626.153 405.724 626.353C405.839 626.554 406.014 626.716 406.249 626.841C406.489 626.967 406.802 627.029 407.187 627.029Z" fill="#2C2C2C"/>
<rect x="284.375" y="458.009" width="111.945" height="36.1348" rx="8.75843" fill="white"/>
<circle cx="300.967" cy="476.076" r="4.37922" fill="#5D91F4"/>
<path d="M315.156 481.576V470.766H322.018V472.035H316.493V474.91H319.428C319.533 474.91 319.658 474.915 319.803 474.925C319.949 474.93 320.089 474.943 320.224 474.963C320.794 475.033 321.277 475.223 321.673 475.533C322.073 475.838 322.376 476.226 322.581 476.697C322.791 477.167 322.896 477.683 322.896 478.243C322.896 478.799 322.794 479.312 322.589 479.782C322.383 480.253 322.081 480.643 321.68 480.953C321.285 481.259 320.799 481.449 320.224 481.524C320.089 481.539 319.949 481.551 319.803 481.561C319.658 481.571 319.533 481.576 319.428 481.576H315.156ZM316.493 480.308H319.383C319.478 480.308 319.586 480.303 319.706 480.293C319.831 480.283 319.949 480.268 320.059 480.248C320.579 480.143 320.955 479.895 321.185 479.504C321.415 479.109 321.53 478.689 321.53 478.243C321.53 477.788 321.415 477.367 321.185 476.982C320.955 476.592 320.579 476.344 320.059 476.239C319.949 476.214 319.831 476.199 319.706 476.194C319.586 476.184 319.478 476.179 319.383 476.179H316.493V480.308ZM328.117 481.802C327.357 481.802 326.716 481.614 326.196 481.239C325.675 480.858 325.28 480.345 325.009 479.7C324.744 479.049 324.612 478.321 324.612 477.515C324.612 476.699 324.744 475.969 325.009 475.323C325.28 474.677 325.675 474.169 326.196 473.799C326.721 473.429 327.364 473.243 328.125 473.243C328.876 473.243 329.521 473.431 330.062 473.806C330.607 474.177 331.025 474.685 331.316 475.33C331.606 475.976 331.751 476.704 331.751 477.515C331.751 478.326 331.606 479.054 331.316 479.7C331.025 480.345 330.607 480.858 330.062 481.239C329.521 481.614 328.873 481.802 328.117 481.802ZM324.386 485.18V473.469H325.58V479.437H325.73V485.18H324.386ZM327.952 480.578C328.488 480.578 328.931 480.443 329.281 480.173C329.631 479.902 329.894 479.537 330.069 479.077C330.245 478.611 330.332 478.091 330.332 477.515C330.332 476.944 330.245 476.429 330.069 475.969C329.899 475.508 329.634 475.143 329.274 474.872C328.918 474.602 328.465 474.467 327.915 474.467C327.389 474.467 326.954 474.597 326.609 474.857C326.263 475.113 326.005 475.471 325.835 475.931C325.665 476.386 325.58 476.914 325.58 477.515C325.58 478.106 325.663 478.634 325.828 479.099C325.998 479.559 326.258 479.922 326.609 480.188C326.959 480.448 327.407 480.578 327.952 480.578ZM335.701 481.802C335.096 481.802 334.588 481.692 334.177 481.471C333.772 481.246 333.464 480.951 333.254 480.585C333.049 480.22 332.946 479.82 332.946 479.384C332.946 478.959 333.026 478.591 333.186 478.281C333.352 477.965 333.582 477.705 333.877 477.5C334.172 477.29 334.525 477.125 334.936 477.005C335.321 476.899 335.751 476.809 336.227 476.734C336.707 476.654 337.193 476.582 337.683 476.517C338.174 476.451 338.632 476.389 339.057 476.329L338.577 476.607C338.592 475.886 338.447 475.353 338.141 475.008C337.841 474.662 337.32 474.49 336.58 474.49C336.089 474.49 335.659 474.602 335.289 474.827C334.923 475.048 334.665 475.408 334.515 475.908L333.247 475.526C333.442 474.815 333.82 474.257 334.38 473.851C334.941 473.446 335.679 473.243 336.595 473.243C337.33 473.243 337.961 473.376 338.487 473.641C339.017 473.902 339.397 474.297 339.628 474.827C339.743 475.078 339.815 475.35 339.845 475.646C339.875 475.936 339.89 476.241 339.89 476.562V481.576H338.704V479.632L338.982 479.812C338.677 480.468 338.249 480.963 337.698 481.299C337.153 481.634 336.487 481.802 335.701 481.802ZM335.904 480.683C336.385 480.683 336.8 480.598 337.15 480.428C337.506 480.253 337.791 480.025 338.006 479.745C338.221 479.459 338.361 479.149 338.427 478.814C338.502 478.564 338.542 478.286 338.547 477.98C338.557 477.67 338.562 477.432 338.562 477.267L339.027 477.47C338.592 477.53 338.164 477.588 337.743 477.643C337.323 477.698 336.925 477.758 336.55 477.823C336.174 477.883 335.837 477.955 335.536 478.041C335.316 478.111 335.108 478.201 334.913 478.311C334.723 478.421 334.568 478.564 334.448 478.739C334.333 478.909 334.275 479.122 334.275 479.377C334.275 479.597 334.33 479.807 334.44 480.007C334.555 480.208 334.73 480.37 334.966 480.495C335.206 480.62 335.519 480.683 335.904 480.683ZM344.748 481.802C343.947 481.802 343.239 481.629 342.623 481.284C342.007 480.933 341.522 480.453 341.167 479.842L342.233 479.152C342.528 479.597 342.881 479.94 343.291 480.18C343.702 480.415 344.17 480.533 344.695 480.533C345.246 480.533 345.684 480.408 346.009 480.158C346.334 479.902 346.497 479.559 346.497 479.129C346.497 478.809 346.417 478.564 346.257 478.393C346.096 478.223 345.866 478.106 345.566 478.041C345.266 477.975 344.908 477.943 344.492 477.943H343.652V476.839H344.485C345.01 476.839 345.438 476.754 345.769 476.584C346.099 476.414 346.264 476.124 346.264 475.713C346.264 475.293 346.109 474.988 345.799 474.797C345.493 474.602 345.128 474.505 344.703 474.505C344.252 474.505 343.822 474.6 343.411 474.79C343.001 474.975 342.648 475.21 342.353 475.496L341.542 474.587C341.962 474.157 342.445 473.826 342.991 473.596C343.541 473.361 344.14 473.243 344.785 473.243C345.306 473.243 345.781 473.336 346.212 473.521C346.647 473.701 346.992 473.969 347.248 474.324C347.508 474.675 347.638 475.103 347.638 475.608C347.638 476.039 347.538 476.421 347.338 476.757C347.137 477.092 346.842 477.385 346.452 477.635L346.399 477.162C346.73 477.242 347.002 477.39 347.217 477.605C347.438 477.815 347.6 478.066 347.705 478.356C347.811 478.646 347.863 478.949 347.863 479.264C347.863 479.795 347.723 480.25 347.443 480.631C347.167 481.006 346.795 481.296 346.324 481.501C345.854 481.702 345.328 481.802 344.748 481.802ZM356.147 473.469V481.576H354.856V475.601L350.607 481.576H349.503V473.469H350.795V479.362L355.051 473.469H356.147ZM357.499 481.576V480.428C357.799 480.483 358.027 480.473 358.182 480.398C358.342 480.318 358.46 480.18 358.535 479.985C358.615 479.785 358.68 479.534 358.73 479.234C358.815 478.759 358.888 478.228 358.948 477.643C359.013 477.057 359.071 476.416 359.121 475.721C359.176 475.02 359.226 474.269 359.271 473.469H364.939V481.576H363.602V474.737H360.487C360.457 475.198 360.419 475.671 360.374 476.156C360.334 476.642 360.292 477.115 360.247 477.575C360.202 478.031 360.152 478.456 360.096 478.851C360.046 479.242 359.991 479.579 359.931 479.865C359.836 480.355 359.704 480.748 359.533 481.043C359.363 481.334 359.118 481.521 358.798 481.606C358.477 481.697 358.045 481.687 357.499 481.576ZM373.684 473.469V481.576H372.392V475.601L368.143 481.576H367.04V473.469H368.331V479.362L372.588 473.469H373.684ZM380.793 481.576V478.641H379.044C378.839 478.641 378.611 478.634 378.361 478.619C378.116 478.599 377.886 478.571 377.67 478.536C377.085 478.426 376.589 478.168 376.184 477.763C375.784 477.357 375.583 476.797 375.583 476.081C375.583 475.385 375.771 474.827 376.146 474.407C376.527 473.982 376.995 473.706 377.55 473.581C377.801 473.521 378.053 473.489 378.309 473.484C378.569 473.474 378.789 473.469 378.969 473.469H382.13L382.137 481.576H380.793ZM375.336 481.576L377.49 478.273H378.932L376.777 481.576H375.336ZM378.947 477.538H380.793V474.572H378.947C378.832 474.572 378.679 474.577 378.489 474.587C378.304 474.597 378.126 474.627 377.956 474.677C377.796 474.722 377.638 474.805 377.483 474.925C377.333 475.045 377.207 475.2 377.107 475.39C377.007 475.581 376.957 475.806 376.957 476.066C376.957 476.441 377.062 476.747 377.273 476.982C377.483 477.212 377.738 477.367 378.038 477.447C378.203 477.487 378.366 477.513 378.526 477.523C378.691 477.533 378.832 477.538 378.947 477.538Z" fill="#2C2C2C"/>
<rect x="1021.04" y="258.364" width="89.3751" height="36.1348" rx="8.75843" fill="white"/>
<circle cx="1039.85" cy="276.431" r="4.37922" fill="#5D91F4"/>
<path d="M1054.04 281.931V271.121H1055.38V276.196L1060.11 271.121H1061.79L1056.88 276.369L1062.17 281.931H1060.44L1055.38 276.646V281.931H1054.04ZM1069.86 273.824V281.931H1068.56V275.956L1064.32 281.931H1063.21V273.824H1064.5V279.717L1068.76 273.824H1069.86ZM1074.1 281.931V275.04H1071.28V273.824H1078.26V275.04H1075.44V281.931H1074.1ZM1081.73 282.157C1081.12 282.157 1080.61 282.047 1080.2 281.826C1079.8 281.601 1079.49 281.306 1079.28 280.94C1079.07 280.575 1078.97 280.175 1078.97 279.739C1078.97 279.314 1079.05 278.946 1079.21 278.636C1079.38 278.32 1079.61 278.06 1079.9 277.855C1080.2 277.645 1080.55 277.48 1080.96 277.359C1081.35 277.254 1081.78 277.164 1082.25 277.089C1082.73 277.009 1083.22 276.937 1083.71 276.872C1084.2 276.806 1084.66 276.744 1085.08 276.684L1084.6 276.962C1084.62 276.241 1084.47 275.708 1084.17 275.363C1083.87 275.017 1083.34 274.845 1082.6 274.845C1082.11 274.845 1081.68 274.957 1081.31 275.182C1080.95 275.403 1080.69 275.763 1080.54 276.263L1079.27 275.881C1079.47 275.17 1079.84 274.612 1080.4 274.206C1080.97 273.801 1081.7 273.598 1082.62 273.598C1083.35 273.598 1083.99 273.731 1084.51 273.996C1085.04 274.257 1085.42 274.652 1085.65 275.182C1085.77 275.433 1085.84 275.705 1085.87 276.001C1085.9 276.291 1085.91 276.596 1085.91 276.917V281.931H1084.73V279.987L1085.01 280.167C1084.7 280.823 1084.27 281.318 1083.72 281.654C1083.18 281.989 1082.51 282.157 1081.73 282.157ZM1081.93 281.038C1082.41 281.038 1082.82 280.953 1083.17 280.783C1083.53 280.608 1083.82 280.38 1084.03 280.1C1084.25 279.814 1084.39 279.504 1084.45 279.169C1084.53 278.918 1084.57 278.641 1084.57 278.335C1084.58 278.025 1084.59 277.787 1084.59 277.622L1085.05 277.825C1084.62 277.885 1084.19 277.943 1083.77 277.998C1083.35 278.053 1082.95 278.113 1082.57 278.178C1082.2 278.238 1081.86 278.31 1081.56 278.395C1081.34 278.466 1081.13 278.556 1080.94 278.666C1080.75 278.776 1080.59 278.918 1080.47 279.094C1080.36 279.264 1080.3 279.477 1080.3 279.732C1080.3 279.952 1080.35 280.162 1080.46 280.362C1080.58 280.563 1080.75 280.725 1080.99 280.85C1081.23 280.975 1081.54 281.038 1081.93 281.038ZM1091.36 272.878C1090.98 272.878 1090.64 272.785 1090.33 272.6C1090.02 272.415 1089.77 272.169 1089.59 271.864C1089.4 271.554 1089.31 271.209 1089.31 270.828H1090.39C1090.39 271.093 1090.48 271.321 1090.67 271.511C1090.86 271.702 1091.09 271.797 1091.36 271.797C1091.63 271.797 1091.86 271.702 1092.04 271.511C1092.23 271.321 1092.33 271.093 1092.33 270.828H1093.41C1093.41 271.209 1093.31 271.554 1093.13 271.864C1092.95 272.169 1092.7 272.415 1092.39 272.6C1092.08 272.785 1091.73 272.878 1091.36 272.878ZM1094.5 273.824V281.931H1093.21V275.956L1088.96 281.931H1087.86V273.824H1089.15V279.717L1093.41 273.824H1094.5Z" fill="#2C2C2C"/>
<path d="M195.188 196.439C244.402 149.215 393.629 70.5347 596.824 133.61" stroke="#ADADAD" stroke-width="2.50241" stroke-linecap="round" stroke-dasharray="12.51 12.51"/>
<path d="M874.592 118.865C952.492 118.865 1037.25 174.51 1037.25 245.236" stroke="#ADADAD" stroke-width="2.50241" stroke-linecap="round" stroke-dasharray="12.51 12.51"/>
<path d="M409.143 475.458C606.786 475.458 788.564 378.352 829.547 226.468" stroke="#ADADAD" stroke-width="2.50241" stroke-linecap="round" stroke-dasharray="12.51 12.51"/>
</svg>
